M48
; DRILL file {KiCad (6.0.4)} date Sun May  8 12:30:28 2022
; FORMAT={-:-/ absolute / metric / decimal}
; #@! TF.CreationDate,2022-05-08T12:30:28-05:00
; #@! TF.GenerationSoftware,Kicad,Pcbnew,(6.0.4)
; #@! TF.FileFunction,Plated,1,2,PTH
FMAT,2
METRIC
; #@! TA.AperFunction,Plated,PTH,ViaDrill
T1C0.400
; #@! TA.AperFunction,Plated,PTH,ComponentDrill
T2C0.600
; #@! TA.AperFunction,Plated,PTH,ComponentDrill
T3C1.000
; #@! TA.AperFunction,Plated,PTH,ComponentDrill
T4C2.200
%
G90
G05
T1
X24.57Y-95.18
X25.97Y-91.15
X28.47Y-63.89
X29.64Y-54.29
X30.66Y-53.2
X35.0Y-65.8
X37.45Y-47.0
X56.92Y-112.89
X56.95Y-44.45
X57.58Y-103.39
X58.41Y-109.9
X60.7Y-95.38
X61.25Y-81.51
X61.74Y-94.61
X62.19Y-74.01
X62.64Y-80.05
X63.54Y-72.66
X63.57Y-62.6
X64.96Y-61.14
X65.892Y-43.693
X67.28Y-42.23
X74.4Y-61.2
X82.21Y-117.34
X89.7Y-86.9
X92.7Y-68.5
X95.24Y-118.93
X99.06Y-86.15
X99.87Y-89.42
X101.19Y-78.67
X101.38Y-67.24
X102.19Y-70.51
X102.59Y-57.46
X103.68Y-104.28
X103.69Y-48.34
X104.51Y-51.6
X117.15Y-99.09
X118.32Y-113.52
X118.578Y-97.94
X119.43Y-102.98
X119.455Y-95.94
X120.57Y-80.0
X120.63Y-116.88
X120.905Y-90.09
X121.47Y-78.22
X122.94Y-106.04
X123.264Y-59.6
X123.34Y-63.94
X123.41Y-65.63
X123.76Y-105.32
X124.2Y-106.9
X124.52Y-104.52
X126.5Y-112.0
X126.524Y-106.12
X126.62Y-104.52
X126.76Y-63.09
X126.8Y-107.4
X127.26Y-105.32
X127.484Y-90.09
X127.83Y-95.08
X128.03Y-74.21
X128.88Y-57.65
X129.25Y-97.05
X129.35Y-49.12
X129.452Y-90.883
X129.46Y-95.71
X129.55Y-80.52
X129.72Y-65.99
X129.788Y-102.975
X130.175Y-111.525
X130.44Y-120.49
X130.57Y-106.94
X130.575Y-70.55
X130.575Y-75.225
X130.58Y-100.27
X130.6Y-108.5
X131.1Y-51.72
X131.18Y-47.28
X131.37Y-79.43
X131.4Y-101.43
X131.65Y-81.75
X131.8Y-117.605
X131.8Y-120.48
X132.15Y-64.6
X132.45Y-97.35
X132.594Y-49.125
X132.99Y-117.63
X133.1Y-79.3
X133.175Y-114.525
X133.425Y-45.875
X133.72Y-81.774
X133.72Y-88.09
X133.875Y-54.2
X134.445Y-90.09
X134.7Y-116.875
X134.865Y-96.505
X135.15Y-60.4
X135.589Y-100.272
X135.615Y-46.675
X137.02Y-49.86
X137.12Y-117.6
X137.25Y-115.98
X137.66Y-96.425
X137.666Y-119.69
X139.025Y-50.57
X139.21Y-119.69
X139.54Y-96.434
X140.34Y-97.04
X140.5Y-46.675
X140.52Y-78.04
X141.15Y-96.434
X141.29Y-47.49
X141.935Y-97.095
X142.733Y-120.477
X142.74Y-96.45
X142.85Y-115.175
X143.59Y-65.78
X143.8Y-101.43
X144.0Y-48.4
X144.2Y-52.6
X144.314Y-67.79
X144.61Y-100.58
X145.039Y-68.83
X145.355Y-104.52
X146.54Y-78.04
X146.7Y-102.4
X147.167Y-61.178
X149.46Y-80.52
X149.46Y-102.154
X150.25Y-81.39
X150.25Y-102.78
X150.29Y-109.32
X151.03Y-82.4
X151.03Y-102.155
X151.05Y-108.52
X151.945Y-49.125
X152.534Y-83.064
X152.534Y-102.78
X153.39Y-83.79
X153.39Y-102.19
X154.13Y-100.58
X154.13Y-102.88
X161.89Y-119.15
X165.81Y-120.72
X170.07Y-49.23
X170.22Y-120.15
X171.39Y-107.06
X171.5Y-51.01
X172.39Y-68.14
X173.66Y-78.41
X173.82Y-69.92
X174.72Y-87.04
X174.74Y-77.4
X175.927Y-58.325
X176.14Y-88.82
X176.69Y-64.39
X193.75Y-117.43
X196.5Y-96.2
X207.31Y-39.86
X209.32Y-46.37
X209.63Y-58.77
X210.19Y-53.48
X211.31Y-72.42
X211.63Y-65.27
X211.95Y-77.67
X214.16Y-84.18
X215.5Y-97.7
X216.7Y-112.02
X217.21Y-101.02
X231.0Y-69.2
X236.3Y-93.2
X237.85Y-70.2
X240.35Y-89.15
X244.675Y-53.4
X245.13Y-56.51
X249.2Y-94.29
X250.25Y-93.1
T3
X118.47Y-106.64
X118.47Y-109.18
X118.47Y-111.72
X121.539Y-46.202
X124.037Y-46.665
X126.534Y-47.128
X129.031Y-47.591
X134.265Y-72.0
X135.565Y-52.94
X135.565Y-67.44
X136.805Y-72.0
X138.065Y-67.44
X139.345Y-72.0
X140.565Y-52.94
X140.565Y-67.44
X141.885Y-72.0
X148.755Y-117.645
X151.295Y-117.645
T4
X132.465Y-59.94
X143.665Y-59.94
T2
G00X133.745Y-37.5
M15
G01X133.745Y-38.1
M16
G05
G00X133.745Y-41.43
M15
G01X133.745Y-42.53
M16
G05
G00X142.385Y-37.5
M15
G01X142.385Y-38.1
M16
G05
G00X142.385Y-41.43
M15
G01X142.385Y-42.53
M16
G05
T0
M30
