%TF.GenerationSoftware,KiCad,Pcbnew,(6.0.4)*%
%TF.CreationDate,2022-05-08T12:30:25-05:00*%
%TF.ProjectId,LeChiffre-HE,4c654368-6966-4667-9265-2d48452e6b69,rev?*%
%TF.SameCoordinates,Original*%
%TF.FileFunction,Soldermask,Bot*%
%TF.FilePolarity,Negative*%
%FSLAX46Y46*%
G04 Gerber Fmt 4.6, Leading zero omitted, Abs format (unit mm)*
G04 Created by KiCad (PCBNEW (6.0.4)) date 2022-05-08 12:30:25*
%MOMM*%
%LPD*%
G01*
G04 APERTURE LIST*
G04 Aperture macros list*
%AMRoundRect*
0 Rectangle with rounded corners*
0 $1 Rounding radius*
0 $2 $3 $4 $5 $6 $7 $8 $9 X,Y pos of 4 corners*
0 Add a 4 corners polygon primitive as box body*
4,1,4,$2,$3,$4,$5,$6,$7,$8,$9,$2,$3,0*
0 Add four circle primitives for the rounded corners*
1,1,$1+$1,$2,$3*
1,1,$1+$1,$4,$5*
1,1,$1+$1,$6,$7*
1,1,$1+$1,$8,$9*
0 Add four rect primitives between the rounded corners*
20,1,$1+$1,$2,$3,$4,$5,0*
20,1,$1+$1,$4,$5,$6,$7,0*
20,1,$1+$1,$6,$7,$8,$9,0*
20,1,$1+$1,$8,$9,$2,$3,0*%
%AMHorizOval*
0 Thick line with rounded ends*
0 $1 width*
0 $2 $3 position (X,Y) of the first rounded end (center of the circle)*
0 $4 $5 position (X,Y) of the second rounded end (center of the circle)*
0 Add line between two ends*
20,1,$1,$2,$3,$4,$5,0*
0 Add two circle primitives to create the rounded ends*
1,1,$1,$2,$3*
1,1,$1,$4,$5*%
%AMFreePoly0*
4,1,14,0.486062,0.436062,0.501000,0.400000,0.501000,-0.240000,0.486062,-0.276062,0.326062,-0.436062,0.290000,-0.451000,-0.450000,-0.451000,-0.486062,-0.436062,-0.501000,-0.400000,-0.501000,0.400000,-0.486062,0.436062,-0.450000,0.451000,0.450000,0.451000,0.486062,0.436062,0.486062,0.436062,$1*%
G04 Aperture macros list end*
%ADD10C,1.852000*%
%ADD11C,3.102000*%
%ADD12C,4.089800*%
%ADD13RoundRect,0.051000X-1.417833X-1.085299X1.113160X-1.396066X1.417833X1.085299X-1.113160X1.396066X0*%
%ADD14RoundRect,0.051000X-1.144883X-1.118813X0.840209X-1.362552X1.144883X1.118813X-0.840209X1.362552X0*%
%ADD15C,3.150000*%
%ADD16RoundRect,0.051000X-1.113160X-1.396066X1.417833X-1.085299X1.113160X1.396066X-1.417833X1.085299X0*%
%ADD17RoundRect,0.051000X0.850000X0.850000X-0.850000X0.850000X-0.850000X-0.850000X0.850000X-0.850000X0*%
%ADD18O,1.802000X1.802000*%
%ADD19RoundRect,0.051000X0.850000X-0.850000X0.850000X0.850000X-0.850000X0.850000X-0.850000X-0.850000X0*%
%ADD20RoundRect,0.051000X1.000000X-1.000000X1.000000X1.000000X-1.000000X1.000000X-1.000000X-1.000000X0*%
%ADD21C,2.102000*%
%ADD22C,2.902000*%
%ADD23RoundRect,0.051000X-1.275000X-1.250000X1.275000X-1.250000X1.275000X1.250000X-1.275000X1.250000X0*%
%ADD24RoundRect,0.276000X0.225000X0.250000X-0.225000X0.250000X-0.225000X-0.250000X0.225000X-0.250000X0*%
%ADD25RoundRect,0.276000X-0.250000X0.225000X-0.250000X-0.225000X0.250000X-0.225000X0.250000X0.225000X0*%
%ADD26RoundRect,0.276000X0.250000X-0.225000X0.250000X0.225000X-0.250000X0.225000X-0.250000X-0.225000X0*%
%ADD27RoundRect,0.294750X0.456250X-0.243750X0.456250X0.243750X-0.456250X0.243750X-0.456250X-0.243750X0*%
%ADD28RoundRect,0.200000X-0.750000X-0.250000X0.750000X-0.250000X0.750000X0.250000X-0.750000X0.250000X0*%
%ADD29RoundRect,0.200000X-0.250000X-0.750000X0.250000X-0.750000X0.250000X0.750000X-0.250000X0.750000X0*%
%ADD30C,0.752000*%
%ADD31RoundRect,0.051000X-0.300000X-1.225000X0.300000X-1.225000X0.300000X1.225000X-0.300000X1.225000X0*%
%ADD32RoundRect,0.051000X-0.150000X-1.225000X0.150000X-1.225000X0.150000X1.225000X-0.150000X1.225000X0*%
%ADD33RoundRect,0.251000X0.275000X-0.200000X0.275000X0.200000X-0.275000X0.200000X-0.275000X-0.200000X0*%
%ADD34RoundRect,0.251000X0.200000X0.275000X-0.200000X0.275000X-0.200000X-0.275000X0.200000X-0.275000X0*%
%ADD35RoundRect,0.251000X-0.200000X-0.275000X0.200000X-0.275000X0.200000X0.275000X-0.200000X0.275000X0*%
%ADD36RoundRect,0.251000X-0.275000X0.200000X-0.275000X-0.200000X0.275000X-0.200000X0.275000X0.200000X0*%
%ADD37RoundRect,0.051000X-0.850000X-0.500000X0.850000X-0.500000X0.850000X0.500000X-0.850000X0.500000X0*%
%ADD38RoundRect,0.051000X-0.805344X-0.404871X0.683475X-0.587675X0.805344X0.404871X-0.683475X0.587675X0*%
%ADD39RoundRect,0.051000X0.805344X0.404871X-0.683475X0.587675X-0.805344X-0.404871X0.683475X-0.587675X0*%
%ADD40RoundRect,0.051000X0.683475X0.587675X-0.805344X0.404871X-0.683475X-0.587675X0.805344X-0.404871X0*%
%ADD41RoundRect,0.051000X-0.683475X-0.587675X0.805344X-0.404871X0.683475X0.587675X-0.805344X0.404871X0*%
%ADD42RoundRect,0.051000X-0.750000X-0.500000X0.750000X-0.500000X0.750000X0.500000X-0.750000X0.500000X0*%
%ADD43RoundRect,0.117667X-0.333333X0.383333X-0.333333X-0.383333X0.333333X-0.383333X0.333333X0.383333X0*%
%ADD44FreePoly0,270.000000*%
%ADD45RoundRect,0.117667X0.333333X-0.383333X0.333333X0.383333X-0.333333X0.383333X-0.333333X-0.383333X0*%
%ADD46FreePoly0,90.000000*%
%ADD47RoundRect,0.051000X-0.350000X0.500000X-0.350000X-0.500000X0.350000X-0.500000X0.350000X0.500000X0*%
%ADD48RoundRect,0.051000X-0.350000X0.300000X-0.350000X-0.300000X0.350000X-0.300000X0.350000X0.300000X0*%
%ADD49RoundRect,0.051000X0.600000X-0.450000X0.600000X0.450000X-0.600000X0.450000X-0.600000X-0.450000X0*%
%ADD50RoundRect,0.113500X-0.475000X-0.062500X0.475000X-0.062500X0.475000X0.062500X-0.475000X0.062500X0*%
%ADD51RoundRect,0.113500X-0.062500X-0.475000X0.062500X-0.475000X0.062500X0.475000X-0.062500X0.475000X0*%
%ADD52RoundRect,0.051000X-2.600000X-2.600000X2.600000X-2.600000X2.600000X2.600000X-2.600000X2.600000X0*%
%ADD53RoundRect,0.051000X-0.680866X0.990667X-0.990667X-0.680866X0.680866X-0.990667X0.990667X0.680866X0*%
%ADD54HorizOval,1.802000X0.000000X0.000000X0.000000X0.000000X0*%
%ADD55RoundRect,0.051000X0.150000X1.000000X-0.150000X1.000000X-0.150000X-1.000000X0.150000X-1.000000X0*%
G04 APERTURE END LIST*
D10*
X32463670Y-49809927D03*
D11*
X34033751Y-47443634D03*
D10*
X42547938Y-51048119D03*
D12*
X37505804Y-50429023D03*
D11*
X40645967Y-45696437D03*
D13*
X30783163Y-47044510D03*
X43923355Y-46098849D03*
D10*
X40226327Y-69956123D03*
D11*
X38324356Y-64604441D03*
D10*
X30142059Y-68717931D03*
D12*
X35184193Y-69337027D03*
D11*
X31712140Y-66351638D03*
D13*
X28461552Y-65952514D03*
X41601744Y-65006853D03*
D12*
X32862582Y-88245032D03*
D11*
X29390529Y-85259643D03*
D10*
X37904716Y-88864128D03*
X27820448Y-87625936D03*
D11*
X36002745Y-83512446D03*
D14*
X26139941Y-84860519D03*
D13*
X39280133Y-83914858D03*
D10*
X62036345Y-48642729D03*
D11*
X53522158Y-45038244D03*
X60134374Y-43291047D03*
D10*
X51952077Y-47404537D03*
D12*
X56994211Y-48023633D03*
D13*
X50271570Y-44639121D03*
X63411762Y-43693459D03*
D11*
X57812763Y-62199051D03*
X51200547Y-63946248D03*
D12*
X54672600Y-66931637D03*
D10*
X59714734Y-67550733D03*
X49630466Y-66312541D03*
D13*
X47949959Y-63547125D03*
X61090151Y-62601463D03*
D10*
X57393123Y-86458738D03*
X47308855Y-85220546D03*
D11*
X48878936Y-82854253D03*
D12*
X52350989Y-85839642D03*
D11*
X55491152Y-81107056D03*
D13*
X45628348Y-82455130D03*
X58768540Y-81509468D03*
D12*
X74161007Y-64526247D03*
D10*
X69118873Y-63907151D03*
D11*
X77301170Y-59793661D03*
D10*
X79203141Y-65145343D03*
D11*
X70688954Y-61540858D03*
D13*
X67438366Y-61141734D03*
X80578558Y-60196073D03*
D10*
X76881530Y-84053348D03*
D12*
X71839396Y-83434252D03*
D11*
X74979559Y-78701666D03*
D10*
X66797262Y-82815156D03*
D11*
X68367343Y-80448863D03*
D13*
X65116755Y-80049739D03*
X78256947Y-79104078D03*
D10*
X99852353Y-53285951D03*
X89768085Y-52047759D03*
D11*
X97950382Y-47934269D03*
X91338166Y-49681466D03*
D12*
X94810219Y-52666855D03*
D13*
X88087578Y-49282343D03*
X101227770Y-48336681D03*
D10*
X87446474Y-70955763D03*
D12*
X92488608Y-71574859D03*
D11*
X89016555Y-68589470D03*
X95628771Y-66842273D03*
D10*
X97530742Y-72193955D03*
D13*
X85765967Y-68190347D03*
X98906159Y-67244685D03*
D10*
X85124863Y-89863768D03*
D11*
X93307160Y-85750278D03*
X86694944Y-87497475D03*
D12*
X90166997Y-90482864D03*
D10*
X95209131Y-91101960D03*
D13*
X83444356Y-87098352D03*
X96584548Y-86152690D03*
D10*
X108676089Y-54369370D03*
D11*
X110246170Y-52003077D03*
X116858386Y-50255880D03*
D10*
X118760357Y-55607562D03*
D12*
X113718223Y-54988466D03*
D13*
X106995582Y-51603953D03*
X120135774Y-50658292D03*
D10*
X116438746Y-74515566D03*
D11*
X114536775Y-69163884D03*
X107924559Y-70911081D03*
D12*
X111396612Y-73896470D03*
D10*
X106354478Y-73277374D03*
D13*
X104673971Y-70511957D03*
X117814163Y-69566296D03*
D11*
X105602949Y-89819086D03*
D10*
X114117136Y-93423571D03*
X104032868Y-92185379D03*
D11*
X112215165Y-88071889D03*
D12*
X109075002Y-92804475D03*
D13*
X102352361Y-89419962D03*
X115492553Y-88474301D03*
D15*
X108297147Y-118939484D03*
D12*
X110154435Y-103813081D03*
D11*
X93827335Y-107566284D03*
X100439551Y-105819087D03*
D12*
X97299388Y-110551673D03*
X86456403Y-100903328D03*
D10*
X92257254Y-109932577D03*
X102341522Y-111170769D03*
D15*
X84599115Y-116029732D03*
D13*
X90576747Y-107167161D03*
X103716939Y-106221499D03*
D10*
X157369643Y-55607562D03*
D11*
X164313748Y-49636783D03*
D12*
X162411777Y-54988466D03*
D11*
X158320628Y-52931721D03*
D10*
X167453911Y-54369370D03*
D16*
X155070039Y-53330843D03*
X167591135Y-49234371D03*
D12*
X164733388Y-73896470D03*
D10*
X159691254Y-74515566D03*
D11*
X160642239Y-71839725D03*
D10*
X169775522Y-73277374D03*
D11*
X166635359Y-68544787D03*
D16*
X157391650Y-72238847D03*
X169912746Y-68142375D03*
D10*
X172097132Y-92185379D03*
X162012864Y-93423571D03*
D11*
X168956969Y-87452792D03*
D12*
X167054998Y-92804475D03*
D11*
X162963849Y-90747730D03*
D16*
X159713260Y-91146852D03*
X172234356Y-87050380D03*
D12*
X189673597Y-100903328D03*
D10*
X173788478Y-111170769D03*
D15*
X191530885Y-116029732D03*
D11*
X174739463Y-108494928D03*
D15*
X167832853Y-118939484D03*
D11*
X180732583Y-105199990D03*
D10*
X183872746Y-109932577D03*
D12*
X165975565Y-103813081D03*
X178830612Y-110551673D03*
D16*
X171488874Y-108894050D03*
X184009970Y-104797578D03*
D10*
X186361915Y-52047759D03*
D11*
X177228632Y-50610110D03*
D12*
X181319781Y-52666855D03*
D10*
X176277647Y-53285951D03*
D11*
X183221752Y-47315172D03*
D16*
X173978043Y-51009232D03*
X186499139Y-46912760D03*
D10*
X178599258Y-72193955D03*
D12*
X183641392Y-71574859D03*
D10*
X188683526Y-70955763D03*
D11*
X185543363Y-66223176D03*
X179550243Y-69518114D03*
D16*
X176299654Y-69917236D03*
X188820750Y-65820764D03*
D10*
X180920869Y-91101960D03*
X191005137Y-89863768D03*
D11*
X181871854Y-88426119D03*
X187864974Y-85131181D03*
D12*
X185963003Y-90482864D03*
D16*
X178621265Y-88825241D03*
X191142361Y-84728769D03*
D11*
X211457842Y-101427403D03*
D10*
X204513737Y-107398182D03*
D12*
X209555871Y-106779086D03*
D11*
X205464722Y-104722341D03*
D10*
X214598005Y-106159990D03*
D16*
X202214133Y-105121463D03*
X214735229Y-101024991D03*
D11*
X201549353Y-40266560D03*
D10*
X204689516Y-44999147D03*
D12*
X199647382Y-45618243D03*
D11*
X195556233Y-43561498D03*
D10*
X194605248Y-46237339D03*
D16*
X192305644Y-43960620D03*
X204826740Y-39864148D03*
D10*
X196926859Y-65145343D03*
D11*
X203870964Y-59174564D03*
D10*
X207011127Y-63907151D03*
D12*
X201968993Y-64526247D03*
D11*
X197877844Y-62469502D03*
D16*
X194627255Y-62868624D03*
X207148351Y-58772152D03*
D11*
X206192575Y-78082569D03*
D12*
X204290604Y-83434252D03*
D11*
X200199455Y-81377507D03*
D10*
X199248470Y-84053348D03*
X209332738Y-82815156D03*
D16*
X196948866Y-81776629D03*
X209469962Y-77680157D03*
D12*
X219135789Y-48023633D03*
D10*
X224177923Y-47404537D03*
D11*
X215044640Y-45966888D03*
X221037760Y-42671950D03*
D10*
X214093655Y-48642729D03*
D16*
X211794051Y-46366010D03*
X224315147Y-42269538D03*
D10*
X226499534Y-66312541D03*
D11*
X217366251Y-64874892D03*
D12*
X221457400Y-66931637D03*
D10*
X216415266Y-67550733D03*
D11*
X223359371Y-61579954D03*
D16*
X214115662Y-65274014D03*
X226636758Y-61177542D03*
D12*
X223779011Y-85839642D03*
D10*
X218736877Y-86458738D03*
X228821145Y-85220546D03*
D11*
X219687862Y-83782897D03*
X225680982Y-80487959D03*
D16*
X216437273Y-84182019D03*
X228958369Y-80085547D03*
D11*
X240526167Y-45077340D03*
X234533047Y-48372278D03*
D10*
X233582062Y-51048119D03*
X243666330Y-49809927D03*
D12*
X238624196Y-50429023D03*
D16*
X231282458Y-48771400D03*
X243803554Y-44674928D03*
D12*
X240945807Y-69337027D03*
D10*
X245987941Y-68717931D03*
X235903673Y-69956123D03*
D11*
X236854658Y-67280282D03*
X242847778Y-63985344D03*
D16*
X233604069Y-67679404D03*
X246125165Y-63582932D03*
D10*
X248309552Y-87625936D03*
D11*
X245169389Y-82893349D03*
D12*
X243267418Y-88245032D03*
D10*
X238225284Y-88864128D03*
D11*
X239176269Y-86188287D03*
D16*
X235925680Y-86587409D03*
X248446776Y-82490937D03*
D17*
X118470000Y-106640000D03*
D18*
X118470000Y-109180000D03*
X118470000Y-111720000D03*
D19*
X134265000Y-72000000D03*
D18*
X136805000Y-72000000D03*
X139345000Y-72000000D03*
X141885000Y-72000000D03*
D10*
X71616263Y-107398182D03*
D11*
X63102076Y-103793697D03*
D12*
X66574129Y-106779086D03*
D10*
X61531995Y-106159990D03*
D11*
X69714292Y-102046500D03*
D13*
X59851488Y-103394573D03*
X72991680Y-102448912D03*
D10*
X81524752Y-46237339D03*
D12*
X76482618Y-45618243D03*
D10*
X71440484Y-44999147D03*
D11*
X79622781Y-40885657D03*
X73010565Y-42632854D03*
D13*
X69759977Y-42233730D03*
X82900169Y-41288069D03*
D20*
X135565000Y-67440000D03*
D21*
X140565000Y-67440000D03*
X138065000Y-67440000D03*
D22*
X143665000Y-59940000D03*
X132465000Y-59940000D03*
D21*
X140565000Y-52940000D03*
X135565000Y-52940000D03*
D10*
X132985000Y-60190000D03*
D12*
X138065000Y-60190000D03*
D10*
X143145000Y-60190000D03*
D11*
X140605000Y-55110000D03*
X134255000Y-57650000D03*
D23*
X130980000Y-57650000D03*
X143907000Y-55110000D03*
D18*
X151295000Y-117645000D03*
X148755000Y-117645000D03*
D24*
X148250000Y-103650000D03*
X146700000Y-103650000D03*
D25*
X143100000Y-116325000D03*
X143100000Y-117875000D03*
D24*
X129275000Y-107350000D03*
X127725000Y-107350000D03*
X129275000Y-112000000D03*
X127725000Y-112000000D03*
D26*
X132400000Y-100090000D03*
X132400000Y-98540000D03*
D27*
X134350000Y-48837500D03*
X134350000Y-46962500D03*
D28*
X132165000Y-111720000D03*
X132165000Y-110920000D03*
X132165000Y-110120000D03*
X132165000Y-109320000D03*
X132165000Y-108520000D03*
X132165000Y-107720000D03*
X132165000Y-106920000D03*
X132165000Y-106120000D03*
X132165000Y-105320000D03*
X132165000Y-104520000D03*
X132165000Y-103720000D03*
D29*
X134065000Y-101820000D03*
X134865000Y-101820000D03*
X135665000Y-101820000D03*
X136465000Y-101820000D03*
X137265000Y-101820000D03*
X138065000Y-101820000D03*
X138865000Y-101820000D03*
X139665000Y-101820000D03*
X140465000Y-101820000D03*
X141265000Y-101820000D03*
X142065000Y-101820000D03*
D28*
X143965000Y-103720000D03*
X143965000Y-104520000D03*
X143965000Y-105320000D03*
X143965000Y-106120000D03*
X143965000Y-106920000D03*
X143965000Y-107720000D03*
X143965000Y-108520000D03*
X143965000Y-109320000D03*
X143965000Y-110120000D03*
X143965000Y-110920000D03*
X143965000Y-111720000D03*
D29*
X142065000Y-113620000D03*
X141265000Y-113620000D03*
X140465000Y-113620000D03*
X139665000Y-113620000D03*
X138865000Y-113620000D03*
X138065000Y-113620000D03*
X137265000Y-113620000D03*
X136465000Y-113620000D03*
X135665000Y-113620000D03*
X134865000Y-113620000D03*
X134065000Y-113620000D03*
D30*
X135175000Y-41450000D03*
X140955000Y-41450000D03*
D31*
X134840000Y-43395000D03*
X135615000Y-43395000D03*
D32*
X136315000Y-43395000D03*
X136815000Y-43395000D03*
X137315000Y-43395000D03*
X137815000Y-43395000D03*
X138315000Y-43395000D03*
X138815000Y-43395000D03*
X139315000Y-43395000D03*
X139815000Y-43395000D03*
D31*
X140515000Y-43395000D03*
X141290000Y-43395000D03*
D33*
X132125000Y-47275000D03*
X132125000Y-45625000D03*
X144000000Y-47275000D03*
X144000000Y-45625000D03*
D34*
X129325000Y-108975000D03*
X127675000Y-108975000D03*
D35*
X127675000Y-110475000D03*
X129325000Y-110475000D03*
D36*
X131210000Y-76265000D03*
X131210000Y-77915000D03*
D34*
X148865000Y-112070000D03*
X147215000Y-112070000D03*
D37*
X141215000Y-79350000D03*
X134915000Y-79350000D03*
X134915000Y-75550000D03*
X141215000Y-75550000D03*
D33*
X131360000Y-73165000D03*
X131360000Y-71515000D03*
X144840000Y-72985000D03*
X144840000Y-71335000D03*
D38*
X68393271Y-114379494D03*
X68783253Y-111203346D03*
X73646729Y-111800506D03*
X73256747Y-114976654D03*
D39*
X39366729Y-54290506D03*
X38976747Y-57466654D03*
X34113271Y-56869494D03*
X34503253Y-53693346D03*
X105356729Y-59090506D03*
X104966747Y-62266654D03*
X100103271Y-61669494D03*
X100493253Y-58493346D03*
D40*
X174406747Y-58623346D03*
X174796729Y-61799494D03*
X169933253Y-62396654D03*
X169543271Y-59220506D03*
D41*
X236423253Y-94776654D03*
X236033271Y-91600506D03*
X240896747Y-91003346D03*
X241286729Y-94179494D03*
X202403253Y-115136654D03*
X202013271Y-111960506D03*
X206876747Y-111363346D03*
X207266729Y-114539494D03*
D42*
X135610000Y-120450000D03*
X135610000Y-117250000D03*
X140510000Y-117250000D03*
X140510000Y-120450000D03*
D38*
X34993271Y-94099494D03*
X35383253Y-90923346D03*
X40246729Y-91520506D03*
X39856747Y-94696654D03*
D40*
X241546747Y-53763346D03*
X241936729Y-56939494D03*
X237073253Y-57536654D03*
X236683271Y-54360506D03*
D43*
X118600000Y-78220000D03*
X120500000Y-78220000D03*
D44*
X119550000Y-80220000D03*
D45*
X81430000Y-97890000D03*
X79530000Y-97890000D03*
D46*
X80480000Y-95890000D03*
D47*
X139025000Y-46900000D03*
D48*
X139025000Y-48600000D03*
X137025000Y-48600000D03*
X137025000Y-46700000D03*
D43*
X80830000Y-71770000D03*
X82730000Y-71770000D03*
D44*
X81780000Y-73770000D03*
D43*
X190060000Y-51810000D03*
X191960000Y-51810000D03*
D44*
X191010000Y-53810000D03*
D49*
X147180000Y-58500000D03*
X147180000Y-55200000D03*
D50*
X134727500Y-110210000D03*
X134727501Y-109710000D03*
X134727500Y-109210000D03*
X134727500Y-108710000D03*
X134727501Y-108210000D03*
X134727500Y-107710000D03*
X134727501Y-107210000D03*
X134727500Y-106710000D03*
X134727500Y-106210000D03*
X134727501Y-105710000D03*
X134727500Y-105210000D03*
D51*
X135565000Y-104372500D03*
X136065000Y-104372501D03*
X136565000Y-104372500D03*
X137065000Y-104372500D03*
X137565000Y-104372501D03*
X138065000Y-104372500D03*
X138565000Y-104372501D03*
X139065000Y-104372500D03*
X139565000Y-104372500D03*
X140065000Y-104372501D03*
X140565000Y-104372500D03*
D50*
X141402500Y-105210000D03*
X141402499Y-105710000D03*
X141402500Y-106210000D03*
X141402500Y-106710000D03*
X141402499Y-107210000D03*
X141402500Y-107710000D03*
X141402499Y-108210000D03*
X141402500Y-108710000D03*
X141402500Y-109210000D03*
X141402499Y-109710000D03*
X141402500Y-110210000D03*
D51*
X140565000Y-111047500D03*
X140065000Y-111047499D03*
X139565000Y-111047500D03*
X139065000Y-111047500D03*
X138565000Y-111047500D03*
X138065000Y-111047500D03*
X137565000Y-111047499D03*
X137065000Y-111047500D03*
X136565000Y-111047500D03*
X136065000Y-111047499D03*
X135565000Y-111047500D03*
D52*
X138065000Y-107710000D03*
D43*
X193420000Y-70800000D03*
X195320000Y-70800000D03*
D44*
X194370000Y-72800000D03*
D43*
X116450000Y-95925000D03*
X118350000Y-95925000D03*
D44*
X117400000Y-97925000D03*
D43*
X226140000Y-48800000D03*
X228040000Y-48800000D03*
D44*
X227090000Y-50800000D03*
D45*
X196090000Y-97850000D03*
X194190000Y-97850000D03*
D46*
X195140000Y-95850000D03*
D43*
X230870000Y-86770000D03*
X232770000Y-86770000D03*
D44*
X231820000Y-88770000D03*
D43*
X228370000Y-67340000D03*
X230270000Y-67340000D03*
D44*
X229320000Y-69340000D03*
D43*
X45070000Y-70120000D03*
X46970000Y-70120000D03*
D44*
X46020000Y-72120000D03*
D43*
X121070000Y-57600000D03*
X122970000Y-57600000D03*
D44*
X122020000Y-59600000D03*
D43*
X47210000Y-49380000D03*
X49110000Y-49380000D03*
D44*
X48160000Y-51380000D03*
D43*
X195320000Y-89380000D03*
X197220000Y-89380000D03*
D44*
X196270000Y-91380000D03*
D53*
X121539076Y-46202087D03*
D54*
X124036543Y-46664965D03*
X126534011Y-47127843D03*
X129031478Y-47590722D03*
D55*
X138685000Y-98050000D03*
X137660000Y-98050000D03*
X136635000Y-98050000D03*
D43*
X83310000Y-51070000D03*
X85210000Y-51070000D03*
D44*
X84260000Y-53070000D03*
D43*
X78350000Y-89150000D03*
X80250000Y-89150000D03*
D44*
X79300000Y-91150000D03*
D43*
X43290000Y-87800000D03*
X45190000Y-87800000D03*
D44*
X44240000Y-89800000D03*
G36*
X140218893Y-103830455D02*
G01*
X140265947Y-103869778D01*
X140334663Y-103878408D01*
X140397292Y-103848443D01*
X140404796Y-103839782D01*
X140406687Y-103839128D01*
X140408198Y-103840438D01*
X140407971Y-103842203D01*
X140399525Y-103854844D01*
X140391000Y-103897699D01*
X140391000Y-104847301D01*
X140399525Y-104890156D01*
X140423685Y-104926315D01*
X140459844Y-104950475D01*
X140502699Y-104959000D01*
X140627301Y-104959000D01*
X140670156Y-104950475D01*
X140706315Y-104926315D01*
X140727211Y-104895042D01*
X140729005Y-104894157D01*
X140730668Y-104895268D01*
X140730836Y-104896543D01*
X140730149Y-104899996D01*
X140736349Y-104969275D01*
X140778836Y-105023969D01*
X140844309Y-105047067D01*
X140874842Y-105044884D01*
X140878456Y-105044165D01*
X140880350Y-105044808D01*
X140880740Y-105046770D01*
X140879957Y-105047790D01*
X140848685Y-105068685D01*
X140824525Y-105104844D01*
X140816000Y-105147699D01*
X140816000Y-105272301D01*
X140824525Y-105315156D01*
X140848685Y-105351315D01*
X140884844Y-105375475D01*
X140927699Y-105384000D01*
X141877301Y-105384000D01*
X141920156Y-105375475D01*
X141941898Y-105360948D01*
X141943894Y-105360817D01*
X141945005Y-105362480D01*
X141944544Y-105363894D01*
X141905223Y-105410945D01*
X141896592Y-105479661D01*
X141926555Y-105542290D01*
X141935223Y-105549800D01*
X141935877Y-105551690D01*
X141934567Y-105553202D01*
X141932802Y-105552975D01*
X141920155Y-105544525D01*
X141877300Y-105536000D01*
X140927698Y-105536000D01*
X140884843Y-105544525D01*
X140848684Y-105568685D01*
X140824524Y-105604844D01*
X140815999Y-105647699D01*
X140815999Y-105772301D01*
X140824524Y-105815156D01*
X140848684Y-105851315D01*
X140884843Y-105875475D01*
X140927698Y-105884000D01*
X141877300Y-105884000D01*
X141920155Y-105875475D01*
X141941899Y-105860947D01*
X141943895Y-105860816D01*
X141945006Y-105862479D01*
X141944545Y-105863893D01*
X141905222Y-105910947D01*
X141896592Y-105979663D01*
X141926557Y-106042292D01*
X141935218Y-106049796D01*
X141935872Y-106051687D01*
X141934562Y-106053198D01*
X141932797Y-106052971D01*
X141920156Y-106044525D01*
X141877301Y-106036000D01*
X140927699Y-106036000D01*
X140884844Y-106044525D01*
X140848685Y-106068685D01*
X140824525Y-106104844D01*
X140816000Y-106147699D01*
X140816000Y-106272301D01*
X140824525Y-106315156D01*
X140848685Y-106351315D01*
X140884844Y-106375475D01*
X140927699Y-106384000D01*
X141877301Y-106384000D01*
X141920156Y-106375475D01*
X141941898Y-106360948D01*
X141943894Y-106360817D01*
X141945005Y-106362480D01*
X141944544Y-106363894D01*
X141905223Y-106410945D01*
X141896592Y-106479661D01*
X141926556Y-106542291D01*
X141935219Y-106549798D01*
X141935873Y-106551688D01*
X141934563Y-106553199D01*
X141932798Y-106552972D01*
X141920156Y-106544525D01*
X141877301Y-106536000D01*
X140927699Y-106536000D01*
X140884844Y-106544525D01*
X140848685Y-106568685D01*
X140824525Y-106604844D01*
X140816000Y-106647699D01*
X140816000Y-106772301D01*
X140824525Y-106815156D01*
X140848685Y-106851315D01*
X140884844Y-106875475D01*
X140927699Y-106884000D01*
X141877301Y-106884000D01*
X141920156Y-106875475D01*
X141941898Y-106860948D01*
X141943894Y-106860817D01*
X141945005Y-106862480D01*
X141944544Y-106863894D01*
X141905223Y-106910945D01*
X141896592Y-106979661D01*
X141926555Y-107042290D01*
X141935223Y-107049800D01*
X141935877Y-107051690D01*
X141934567Y-107053202D01*
X141932802Y-107052975D01*
X141920155Y-107044525D01*
X141877300Y-107036000D01*
X140927698Y-107036000D01*
X140884843Y-107044525D01*
X140848684Y-107068685D01*
X140824524Y-107104844D01*
X140815999Y-107147699D01*
X140815999Y-107272301D01*
X140824524Y-107315156D01*
X140848684Y-107351315D01*
X140884843Y-107375475D01*
X140927698Y-107384000D01*
X141877300Y-107384000D01*
X141920155Y-107375475D01*
X141941899Y-107360947D01*
X141943895Y-107360816D01*
X141945006Y-107362479D01*
X141944545Y-107363893D01*
X141905222Y-107410947D01*
X141896592Y-107479663D01*
X141926557Y-107542292D01*
X141935218Y-107549796D01*
X141935872Y-107551687D01*
X141934562Y-107553198D01*
X141932797Y-107552971D01*
X141920156Y-107544525D01*
X141877301Y-107536000D01*
X140927699Y-107536000D01*
X140884844Y-107544525D01*
X140848685Y-107568685D01*
X140824525Y-107604844D01*
X140816000Y-107647699D01*
X140816000Y-107772301D01*
X140824525Y-107815156D01*
X140848685Y-107851315D01*
X140884844Y-107875475D01*
X140927699Y-107884000D01*
X141877301Y-107884000D01*
X141920156Y-107875475D01*
X141941898Y-107860948D01*
X141943894Y-107860817D01*
X141945005Y-107862480D01*
X141944544Y-107863894D01*
X141905223Y-107910945D01*
X141896592Y-107979661D01*
X141926555Y-108042290D01*
X141935223Y-108049800D01*
X141935877Y-108051690D01*
X141934567Y-108053202D01*
X141932802Y-108052975D01*
X141920155Y-108044525D01*
X141877300Y-108036000D01*
X140927698Y-108036000D01*
X140884843Y-108044525D01*
X140848684Y-108068685D01*
X140824524Y-108104844D01*
X140815999Y-108147699D01*
X140815999Y-108272301D01*
X140824524Y-108315156D01*
X140848684Y-108351315D01*
X140884843Y-108375475D01*
X140927698Y-108384000D01*
X141877300Y-108384000D01*
X141920155Y-108375475D01*
X141941899Y-108360947D01*
X141943895Y-108360816D01*
X141945006Y-108362479D01*
X141944545Y-108363893D01*
X141905222Y-108410947D01*
X141896592Y-108479663D01*
X141926557Y-108542292D01*
X141935218Y-108549796D01*
X141935872Y-108551687D01*
X141934562Y-108553198D01*
X141932797Y-108552971D01*
X141920156Y-108544525D01*
X141877301Y-108536000D01*
X140927699Y-108536000D01*
X140884844Y-108544525D01*
X140848685Y-108568685D01*
X140824525Y-108604844D01*
X140816000Y-108647699D01*
X140816000Y-108772301D01*
X140824525Y-108815156D01*
X140848685Y-108851315D01*
X140884844Y-108875475D01*
X140927699Y-108884000D01*
X141877301Y-108884000D01*
X141920156Y-108875475D01*
X141941898Y-108860948D01*
X141943894Y-108860817D01*
X141945005Y-108862480D01*
X141944544Y-108863894D01*
X141905223Y-108910945D01*
X141896592Y-108979661D01*
X141926556Y-109042291D01*
X141935219Y-109049798D01*
X141935873Y-109051688D01*
X141934563Y-109053199D01*
X141932798Y-109052972D01*
X141920156Y-109044525D01*
X141877301Y-109036000D01*
X140927699Y-109036000D01*
X140884844Y-109044525D01*
X140848685Y-109068685D01*
X140824525Y-109104844D01*
X140816000Y-109147699D01*
X140816000Y-109272301D01*
X140824525Y-109315156D01*
X140848685Y-109351315D01*
X140884844Y-109375475D01*
X140927699Y-109384000D01*
X141877301Y-109384000D01*
X141920156Y-109375475D01*
X141941898Y-109360948D01*
X141943894Y-109360817D01*
X141945005Y-109362480D01*
X141944544Y-109363894D01*
X141905223Y-109410945D01*
X141896592Y-109479661D01*
X141926555Y-109542290D01*
X141935223Y-109549800D01*
X141935877Y-109551690D01*
X141934567Y-109553202D01*
X141932802Y-109552975D01*
X141920155Y-109544525D01*
X141877300Y-109536000D01*
X140927698Y-109536000D01*
X140884843Y-109544525D01*
X140848684Y-109568685D01*
X140824524Y-109604844D01*
X140815999Y-109647699D01*
X140815999Y-109772301D01*
X140824524Y-109815156D01*
X140848684Y-109851315D01*
X140884843Y-109875475D01*
X140927698Y-109884000D01*
X141877300Y-109884000D01*
X141920155Y-109875475D01*
X141941899Y-109860947D01*
X141943895Y-109860816D01*
X141945006Y-109862479D01*
X141944545Y-109863893D01*
X141905222Y-109910947D01*
X141896592Y-109979663D01*
X141926557Y-110042292D01*
X141935218Y-110049796D01*
X141935872Y-110051687D01*
X141934562Y-110053198D01*
X141932797Y-110052971D01*
X141920156Y-110044525D01*
X141877301Y-110036000D01*
X140927699Y-110036000D01*
X140884844Y-110044525D01*
X140848685Y-110068685D01*
X140824525Y-110104844D01*
X140816000Y-110147699D01*
X140816000Y-110272301D01*
X140824525Y-110315156D01*
X140848685Y-110351315D01*
X140879958Y-110372211D01*
X140880843Y-110374005D01*
X140879732Y-110375668D01*
X140878457Y-110375836D01*
X140875004Y-110375149D01*
X140805725Y-110381349D01*
X140751031Y-110423836D01*
X140727933Y-110489309D01*
X140730116Y-110519842D01*
X140730835Y-110523456D01*
X140730192Y-110525350D01*
X140728230Y-110525740D01*
X140727210Y-110524957D01*
X140706315Y-110493685D01*
X140670156Y-110469525D01*
X140627301Y-110461000D01*
X140502699Y-110461000D01*
X140459844Y-110469525D01*
X140423685Y-110493685D01*
X140399525Y-110529844D01*
X140391000Y-110572699D01*
X140391000Y-111522301D01*
X140399525Y-111565156D01*
X140414052Y-111586898D01*
X140414183Y-111588894D01*
X140412520Y-111590005D01*
X140411106Y-111589544D01*
X140364055Y-111550223D01*
X140295339Y-111541592D01*
X140232710Y-111571555D01*
X140225200Y-111580223D01*
X140223310Y-111580877D01*
X140221798Y-111579567D01*
X140222025Y-111577802D01*
X140230475Y-111565155D01*
X140239000Y-111522300D01*
X140239000Y-110572698D01*
X140230475Y-110529843D01*
X140206315Y-110493684D01*
X140170156Y-110469524D01*
X140127301Y-110460999D01*
X140002699Y-110460999D01*
X139959844Y-110469524D01*
X139923685Y-110493684D01*
X139899525Y-110529843D01*
X139891000Y-110572698D01*
X139891000Y-111522300D01*
X139899525Y-111565155D01*
X139914053Y-111586899D01*
X139914184Y-111588895D01*
X139912521Y-111590006D01*
X139911107Y-111589545D01*
X139864053Y-111550222D01*
X139795337Y-111541592D01*
X139732708Y-111571557D01*
X139725204Y-111580218D01*
X139723313Y-111580872D01*
X139721802Y-111579562D01*
X139722029Y-111577797D01*
X139730475Y-111565156D01*
X139739000Y-111522301D01*
X139739000Y-110572699D01*
X139730475Y-110529844D01*
X139706315Y-110493685D01*
X139670156Y-110469525D01*
X139627301Y-110461000D01*
X139502699Y-110461000D01*
X139459844Y-110469525D01*
X139423685Y-110493685D01*
X139399525Y-110529844D01*
X139391000Y-110572699D01*
X139391000Y-111522301D01*
X139399525Y-111565156D01*
X139414052Y-111586898D01*
X139414183Y-111588894D01*
X139412520Y-111590005D01*
X139411106Y-111589544D01*
X139364055Y-111550223D01*
X139295339Y-111541592D01*
X139232709Y-111571556D01*
X139225202Y-111580219D01*
X139223312Y-111580873D01*
X139221801Y-111579563D01*
X139222028Y-111577798D01*
X139230475Y-111565156D01*
X139239000Y-111522301D01*
X139239000Y-110572699D01*
X139230475Y-110529844D01*
X139206315Y-110493685D01*
X139170156Y-110469525D01*
X139127301Y-110461000D01*
X139002699Y-110461000D01*
X138959844Y-110469525D01*
X138923685Y-110493685D01*
X138899525Y-110529844D01*
X138891000Y-110572699D01*
X138891000Y-111522301D01*
X138899525Y-111565156D01*
X138914052Y-111586898D01*
X138914183Y-111588894D01*
X138912520Y-111590005D01*
X138911106Y-111589544D01*
X138864055Y-111550223D01*
X138795339Y-111541592D01*
X138732709Y-111571556D01*
X138725202Y-111580219D01*
X138723312Y-111580873D01*
X138721801Y-111579563D01*
X138722028Y-111577798D01*
X138730475Y-111565156D01*
X138739000Y-111522301D01*
X138739000Y-110572699D01*
X138730475Y-110529844D01*
X138706315Y-110493685D01*
X138670156Y-110469525D01*
X138627301Y-110461000D01*
X138502699Y-110461000D01*
X138459844Y-110469525D01*
X138423685Y-110493685D01*
X138399525Y-110529844D01*
X138391000Y-110572699D01*
X138391000Y-111522301D01*
X138399525Y-111565156D01*
X138414052Y-111586898D01*
X138414183Y-111588894D01*
X138412520Y-111590005D01*
X138411106Y-111589544D01*
X138364055Y-111550223D01*
X138295339Y-111541592D01*
X138232709Y-111571556D01*
X138225202Y-111580219D01*
X138223312Y-111580873D01*
X138221801Y-111579563D01*
X138222028Y-111577798D01*
X138230475Y-111565156D01*
X138239000Y-111522301D01*
X138239000Y-110572699D01*
X138230475Y-110529844D01*
X138206315Y-110493685D01*
X138170156Y-110469525D01*
X138127301Y-110461000D01*
X138002699Y-110461000D01*
X137959844Y-110469525D01*
X137923685Y-110493685D01*
X137899525Y-110529844D01*
X137891000Y-110572699D01*
X137891000Y-111522301D01*
X137899525Y-111565156D01*
X137914052Y-111586898D01*
X137914183Y-111588894D01*
X137912520Y-111590005D01*
X137911106Y-111589544D01*
X137864055Y-111550223D01*
X137795339Y-111541592D01*
X137732710Y-111571555D01*
X137725200Y-111580223D01*
X137723310Y-111580877D01*
X137721798Y-111579567D01*
X137722025Y-111577802D01*
X137730475Y-111565155D01*
X137739000Y-111522300D01*
X137739000Y-110572698D01*
X137730475Y-110529843D01*
X137706315Y-110493684D01*
X137670156Y-110469524D01*
X137627301Y-110460999D01*
X137502699Y-110460999D01*
X137459844Y-110469524D01*
X137423685Y-110493684D01*
X137399525Y-110529843D01*
X137391000Y-110572698D01*
X137391000Y-111522300D01*
X137399525Y-111565155D01*
X137414053Y-111586899D01*
X137414184Y-111588895D01*
X137412521Y-111590006D01*
X137411107Y-111589545D01*
X137364053Y-111550222D01*
X137295337Y-111541592D01*
X137232708Y-111571557D01*
X137225204Y-111580218D01*
X137223313Y-111580872D01*
X137221802Y-111579562D01*
X137222029Y-111577797D01*
X137230475Y-111565156D01*
X137239000Y-111522301D01*
X137239000Y-110572699D01*
X137230475Y-110529844D01*
X137206315Y-110493685D01*
X137170156Y-110469525D01*
X137127301Y-110461000D01*
X137002699Y-110461000D01*
X136959844Y-110469525D01*
X136923685Y-110493685D01*
X136899525Y-110529844D01*
X136891000Y-110572699D01*
X136891000Y-111522301D01*
X136899525Y-111565156D01*
X136914052Y-111586898D01*
X136914183Y-111588894D01*
X136912520Y-111590005D01*
X136911106Y-111589544D01*
X136864055Y-111550223D01*
X136795339Y-111541592D01*
X136732709Y-111571556D01*
X136725202Y-111580219D01*
X136723312Y-111580873D01*
X136721801Y-111579563D01*
X136722028Y-111577798D01*
X136730475Y-111565156D01*
X136739000Y-111522301D01*
X136739000Y-110572699D01*
X136730475Y-110529844D01*
X136706315Y-110493685D01*
X136670156Y-110469525D01*
X136627301Y-110461000D01*
X136502699Y-110461000D01*
X136459844Y-110469525D01*
X136423685Y-110493685D01*
X136399525Y-110529844D01*
X136391000Y-110572699D01*
X136391000Y-111522301D01*
X136399525Y-111565156D01*
X136414052Y-111586898D01*
X136414183Y-111588894D01*
X136412520Y-111590005D01*
X136411106Y-111589544D01*
X136364055Y-111550223D01*
X136295339Y-111541592D01*
X136232710Y-111571555D01*
X136225200Y-111580223D01*
X136223310Y-111580877D01*
X136221798Y-111579567D01*
X136222025Y-111577802D01*
X136230475Y-111565155D01*
X136239000Y-111522300D01*
X136239000Y-110572698D01*
X136230475Y-110529843D01*
X136206315Y-110493684D01*
X136170156Y-110469524D01*
X136127301Y-110460999D01*
X136002699Y-110460999D01*
X135959844Y-110469524D01*
X135923685Y-110493684D01*
X135899525Y-110529843D01*
X135891000Y-110572698D01*
X135891000Y-111522300D01*
X135899525Y-111565155D01*
X135914053Y-111586899D01*
X135914184Y-111588895D01*
X135912521Y-111590006D01*
X135911107Y-111589545D01*
X135864053Y-111550222D01*
X135795337Y-111541592D01*
X135732708Y-111571557D01*
X135725204Y-111580218D01*
X135723313Y-111580872D01*
X135721802Y-111579562D01*
X135722029Y-111577797D01*
X135730475Y-111565156D01*
X135739000Y-111522301D01*
X135739000Y-110572699D01*
X135730475Y-110529844D01*
X135706315Y-110493685D01*
X135670156Y-110469525D01*
X135627301Y-110461000D01*
X135502699Y-110461000D01*
X135459844Y-110469525D01*
X135423685Y-110493685D01*
X135402789Y-110524958D01*
X135400995Y-110525843D01*
X135399332Y-110524732D01*
X135399164Y-110523457D01*
X135399851Y-110520004D01*
X135393651Y-110450725D01*
X135351164Y-110396031D01*
X135285691Y-110372933D01*
X135255158Y-110375116D01*
X135251544Y-110375835D01*
X135249650Y-110375192D01*
X135249260Y-110373230D01*
X135250043Y-110372210D01*
X135281315Y-110351315D01*
X135305475Y-110315156D01*
X135306540Y-110309801D01*
X135416000Y-110309801D01*
X135419767Y-110328738D01*
X135430380Y-110344620D01*
X135446262Y-110355233D01*
X135465199Y-110359000D01*
X140664801Y-110359000D01*
X140683738Y-110355233D01*
X140699620Y-110344620D01*
X140710233Y-110328738D01*
X140714000Y-110309801D01*
X140714000Y-105110199D01*
X140710233Y-105091262D01*
X140699620Y-105075380D01*
X140683738Y-105064767D01*
X140664801Y-105061000D01*
X135465199Y-105061000D01*
X135446262Y-105064767D01*
X135430380Y-105075380D01*
X135419767Y-105091262D01*
X135416000Y-105110199D01*
X135416000Y-110309801D01*
X135306540Y-110309801D01*
X135314000Y-110272301D01*
X135314000Y-110147699D01*
X135305475Y-110104844D01*
X135281315Y-110068685D01*
X135245156Y-110044525D01*
X135202301Y-110036000D01*
X134252699Y-110036000D01*
X134209844Y-110044525D01*
X134188102Y-110059052D01*
X134186106Y-110059183D01*
X134184995Y-110057520D01*
X134185456Y-110056106D01*
X134224777Y-110009055D01*
X134233408Y-109940339D01*
X134203445Y-109877710D01*
X134194777Y-109870200D01*
X134194123Y-109868310D01*
X134195433Y-109866798D01*
X134197198Y-109867025D01*
X134209845Y-109875475D01*
X134252700Y-109884000D01*
X135202302Y-109884000D01*
X135245157Y-109875475D01*
X135281316Y-109851315D01*
X135305476Y-109815156D01*
X135314001Y-109772301D01*
X135314001Y-109647699D01*
X135305476Y-109604844D01*
X135281316Y-109568685D01*
X135245157Y-109544525D01*
X135202302Y-109536000D01*
X134252700Y-109536000D01*
X134209845Y-109544525D01*
X134188101Y-109559053D01*
X134186105Y-109559184D01*
X134184994Y-109557521D01*
X134185455Y-109556107D01*
X134224778Y-109509053D01*
X134233408Y-109440337D01*
X134203443Y-109377708D01*
X134194782Y-109370204D01*
X134194128Y-109368313D01*
X134195438Y-109366802D01*
X134197203Y-109367029D01*
X134209844Y-109375475D01*
X134252699Y-109384000D01*
X135202301Y-109384000D01*
X135245156Y-109375475D01*
X135281315Y-109351315D01*
X135305475Y-109315156D01*
X135314000Y-109272301D01*
X135314000Y-109147699D01*
X135305475Y-109104844D01*
X135281315Y-109068685D01*
X135245156Y-109044525D01*
X135202301Y-109036000D01*
X134252699Y-109036000D01*
X134209844Y-109044525D01*
X134188102Y-109059052D01*
X134186106Y-109059183D01*
X134184995Y-109057520D01*
X134185456Y-109056106D01*
X134224777Y-109009055D01*
X134233408Y-108940339D01*
X134203444Y-108877709D01*
X134194781Y-108870202D01*
X134194127Y-108868312D01*
X134195437Y-108866801D01*
X134197202Y-108867028D01*
X134209844Y-108875475D01*
X134252699Y-108884000D01*
X135202301Y-108884000D01*
X135245156Y-108875475D01*
X135281315Y-108851315D01*
X135305475Y-108815156D01*
X135314000Y-108772301D01*
X135314000Y-108647699D01*
X135305475Y-108604844D01*
X135281315Y-108568685D01*
X135245156Y-108544525D01*
X135202301Y-108536000D01*
X134252699Y-108536000D01*
X134209844Y-108544525D01*
X134188102Y-108559052D01*
X134186106Y-108559183D01*
X134184995Y-108557520D01*
X134185456Y-108556106D01*
X134224777Y-108509055D01*
X134233408Y-108440339D01*
X134203445Y-108377710D01*
X134194777Y-108370200D01*
X134194123Y-108368310D01*
X134195433Y-108366798D01*
X134197198Y-108367025D01*
X134209845Y-108375475D01*
X134252700Y-108384000D01*
X135202302Y-108384000D01*
X135245157Y-108375475D01*
X135281316Y-108351315D01*
X135305476Y-108315156D01*
X135314001Y-108272301D01*
X135314001Y-108147699D01*
X135305476Y-108104844D01*
X135281316Y-108068685D01*
X135245157Y-108044525D01*
X135202302Y-108036000D01*
X134252700Y-108036000D01*
X134209845Y-108044525D01*
X134188101Y-108059053D01*
X134186105Y-108059184D01*
X134184994Y-108057521D01*
X134185455Y-108056107D01*
X134224778Y-108009053D01*
X134233408Y-107940337D01*
X134203443Y-107877708D01*
X134194782Y-107870204D01*
X134194128Y-107868313D01*
X134195438Y-107866802D01*
X134197203Y-107867029D01*
X134209844Y-107875475D01*
X134252699Y-107884000D01*
X135202301Y-107884000D01*
X135245156Y-107875475D01*
X135281315Y-107851315D01*
X135305475Y-107815156D01*
X135314000Y-107772301D01*
X135314000Y-107647699D01*
X135305475Y-107604844D01*
X135281315Y-107568685D01*
X135245156Y-107544525D01*
X135202301Y-107536000D01*
X134252699Y-107536000D01*
X134209844Y-107544525D01*
X134188102Y-107559052D01*
X134186106Y-107559183D01*
X134184995Y-107557520D01*
X134185456Y-107556106D01*
X134224777Y-107509055D01*
X134233408Y-107440339D01*
X134203445Y-107377710D01*
X134194777Y-107370200D01*
X134194123Y-107368310D01*
X134195433Y-107366798D01*
X134197198Y-107367025D01*
X134209845Y-107375475D01*
X134252700Y-107384000D01*
X135202302Y-107384000D01*
X135245157Y-107375475D01*
X135281316Y-107351315D01*
X135305476Y-107315156D01*
X135314001Y-107272301D01*
X135314001Y-107147699D01*
X135305476Y-107104844D01*
X135281316Y-107068685D01*
X135245157Y-107044525D01*
X135202302Y-107036000D01*
X134252700Y-107036000D01*
X134209845Y-107044525D01*
X134188101Y-107059053D01*
X134186105Y-107059184D01*
X134184994Y-107057521D01*
X134185455Y-107056107D01*
X134224778Y-107009053D01*
X134233408Y-106940337D01*
X134203443Y-106877708D01*
X134194782Y-106870204D01*
X134194128Y-106868313D01*
X134195438Y-106866802D01*
X134197203Y-106867029D01*
X134209844Y-106875475D01*
X134252699Y-106884000D01*
X135202301Y-106884000D01*
X135245156Y-106875475D01*
X135281315Y-106851315D01*
X135305475Y-106815156D01*
X135314000Y-106772301D01*
X135314000Y-106647699D01*
X135305475Y-106604844D01*
X135281315Y-106568685D01*
X135245156Y-106544525D01*
X135202301Y-106536000D01*
X134252699Y-106536000D01*
X134209844Y-106544525D01*
X134188102Y-106559052D01*
X134186106Y-106559183D01*
X134184995Y-106557520D01*
X134185456Y-106556106D01*
X134224777Y-106509055D01*
X134233408Y-106440339D01*
X134203444Y-106377709D01*
X134194781Y-106370202D01*
X134194127Y-106368312D01*
X134195437Y-106366801D01*
X134197202Y-106367028D01*
X134209844Y-106375475D01*
X134252699Y-106384000D01*
X135202301Y-106384000D01*
X135245156Y-106375475D01*
X135281315Y-106351315D01*
X135305475Y-106315156D01*
X135314000Y-106272301D01*
X135314000Y-106147699D01*
X135305475Y-106104844D01*
X135281315Y-106068685D01*
X135245156Y-106044525D01*
X135202301Y-106036000D01*
X134252699Y-106036000D01*
X134209844Y-106044525D01*
X134188102Y-106059052D01*
X134186106Y-106059183D01*
X134184995Y-106057520D01*
X134185456Y-106056106D01*
X134224777Y-106009055D01*
X134233408Y-105940339D01*
X134203445Y-105877710D01*
X134194777Y-105870200D01*
X134194123Y-105868310D01*
X134195433Y-105866798D01*
X134197198Y-105867025D01*
X134209845Y-105875475D01*
X134252700Y-105884000D01*
X135202302Y-105884000D01*
X135245157Y-105875475D01*
X135281316Y-105851315D01*
X135305476Y-105815156D01*
X135314001Y-105772301D01*
X135314001Y-105647699D01*
X135305476Y-105604844D01*
X135281316Y-105568685D01*
X135245157Y-105544525D01*
X135202302Y-105536000D01*
X134252700Y-105536000D01*
X134209845Y-105544525D01*
X134188101Y-105559053D01*
X134186105Y-105559184D01*
X134184994Y-105557521D01*
X134185455Y-105556107D01*
X134224778Y-105509053D01*
X134233408Y-105440337D01*
X134203443Y-105377708D01*
X134194782Y-105370204D01*
X134194128Y-105368313D01*
X134195438Y-105366802D01*
X134197203Y-105367029D01*
X134209844Y-105375475D01*
X134252699Y-105384000D01*
X135202301Y-105384000D01*
X135245156Y-105375475D01*
X135281315Y-105351315D01*
X135305475Y-105315156D01*
X135314000Y-105272301D01*
X135314000Y-105147699D01*
X135305475Y-105104844D01*
X135281315Y-105068685D01*
X135250042Y-105047789D01*
X135249157Y-105045995D01*
X135250268Y-105044332D01*
X135251543Y-105044164D01*
X135254996Y-105044851D01*
X135324275Y-105038651D01*
X135378969Y-104996164D01*
X135402067Y-104930691D01*
X135399884Y-104900158D01*
X135399165Y-104896544D01*
X135399808Y-104894650D01*
X135401770Y-104894260D01*
X135402790Y-104895043D01*
X135423685Y-104926315D01*
X135459844Y-104950475D01*
X135502699Y-104959000D01*
X135627301Y-104959000D01*
X135670156Y-104950475D01*
X135706315Y-104926315D01*
X135730475Y-104890156D01*
X135739000Y-104847301D01*
X135739000Y-103897699D01*
X135730475Y-103854844D01*
X135715948Y-103833102D01*
X135715817Y-103831106D01*
X135717480Y-103829995D01*
X135718894Y-103830456D01*
X135765945Y-103869777D01*
X135834661Y-103878408D01*
X135897290Y-103848445D01*
X135904800Y-103839777D01*
X135906690Y-103839123D01*
X135908202Y-103840433D01*
X135907975Y-103842198D01*
X135899525Y-103854845D01*
X135891000Y-103897700D01*
X135891000Y-104847302D01*
X135899525Y-104890157D01*
X135923685Y-104926316D01*
X135959844Y-104950476D01*
X136002699Y-104959001D01*
X136127301Y-104959001D01*
X136170156Y-104950476D01*
X136206315Y-104926316D01*
X136230475Y-104890157D01*
X136239000Y-104847302D01*
X136239000Y-103897700D01*
X136230475Y-103854845D01*
X136215947Y-103833101D01*
X136215816Y-103831105D01*
X136217479Y-103829994D01*
X136218893Y-103830455D01*
X136265947Y-103869778D01*
X136334663Y-103878408D01*
X136397292Y-103848443D01*
X136404796Y-103839782D01*
X136406687Y-103839128D01*
X136408198Y-103840438D01*
X136407971Y-103842203D01*
X136399525Y-103854844D01*
X136391000Y-103897699D01*
X136391000Y-104847301D01*
X136399525Y-104890156D01*
X136423685Y-104926315D01*
X136459844Y-104950475D01*
X136502699Y-104959000D01*
X136627301Y-104959000D01*
X136670156Y-104950475D01*
X136706315Y-104926315D01*
X136730475Y-104890156D01*
X136739000Y-104847301D01*
X136739000Y-103897699D01*
X136730475Y-103854844D01*
X136715948Y-103833102D01*
X136715817Y-103831106D01*
X136717480Y-103829995D01*
X136718894Y-103830456D01*
X136765945Y-103869777D01*
X136834661Y-103878408D01*
X136897291Y-103848444D01*
X136904798Y-103839781D01*
X136906688Y-103839127D01*
X136908199Y-103840437D01*
X136907972Y-103842202D01*
X136899525Y-103854844D01*
X136891000Y-103897699D01*
X136891000Y-104847301D01*
X136899525Y-104890156D01*
X136923685Y-104926315D01*
X136959844Y-104950475D01*
X137002699Y-104959000D01*
X137127301Y-104959000D01*
X137170156Y-104950475D01*
X137206315Y-104926315D01*
X137230475Y-104890156D01*
X137239000Y-104847301D01*
X137239000Y-103897699D01*
X137230475Y-103854844D01*
X137215948Y-103833102D01*
X137215817Y-103831106D01*
X137217480Y-103829995D01*
X137218894Y-103830456D01*
X137265945Y-103869777D01*
X137334661Y-103878408D01*
X137397290Y-103848445D01*
X137404800Y-103839777D01*
X137406690Y-103839123D01*
X137408202Y-103840433D01*
X137407975Y-103842198D01*
X137399525Y-103854845D01*
X137391000Y-103897700D01*
X137391000Y-104847302D01*
X137399525Y-104890157D01*
X137423685Y-104926316D01*
X137459844Y-104950476D01*
X137502699Y-104959001D01*
X137627301Y-104959001D01*
X137670156Y-104950476D01*
X137706315Y-104926316D01*
X137730475Y-104890157D01*
X137739000Y-104847302D01*
X137739000Y-103897700D01*
X137730475Y-103854845D01*
X137715947Y-103833101D01*
X137715816Y-103831105D01*
X137717479Y-103829994D01*
X137718893Y-103830455D01*
X137765947Y-103869778D01*
X137834663Y-103878408D01*
X137897292Y-103848443D01*
X137904796Y-103839782D01*
X137906687Y-103839128D01*
X137908198Y-103840438D01*
X137907971Y-103842203D01*
X137899525Y-103854844D01*
X137891000Y-103897699D01*
X137891000Y-104847301D01*
X137899525Y-104890156D01*
X137923685Y-104926315D01*
X137959844Y-104950475D01*
X138002699Y-104959000D01*
X138127301Y-104959000D01*
X138170156Y-104950475D01*
X138206315Y-104926315D01*
X138230475Y-104890156D01*
X138239000Y-104847301D01*
X138239000Y-103897699D01*
X138230475Y-103854844D01*
X138215948Y-103833102D01*
X138215817Y-103831106D01*
X138217480Y-103829995D01*
X138218894Y-103830456D01*
X138265945Y-103869777D01*
X138334661Y-103878408D01*
X138397290Y-103848445D01*
X138404800Y-103839777D01*
X138406690Y-103839123D01*
X138408202Y-103840433D01*
X138407975Y-103842198D01*
X138399525Y-103854845D01*
X138391000Y-103897700D01*
X138391000Y-104847302D01*
X138399525Y-104890157D01*
X138423685Y-104926316D01*
X138459844Y-104950476D01*
X138502699Y-104959001D01*
X138627301Y-104959001D01*
X138670156Y-104950476D01*
X138706315Y-104926316D01*
X138730475Y-104890157D01*
X138739000Y-104847302D01*
X138739000Y-103897700D01*
X138730475Y-103854845D01*
X138715947Y-103833101D01*
X138715816Y-103831105D01*
X138717479Y-103829994D01*
X138718893Y-103830455D01*
X138765947Y-103869778D01*
X138834663Y-103878408D01*
X138897292Y-103848443D01*
X138904796Y-103839782D01*
X138906687Y-103839128D01*
X138908198Y-103840438D01*
X138907971Y-103842203D01*
X138899525Y-103854844D01*
X138891000Y-103897699D01*
X138891000Y-104847301D01*
X138899525Y-104890156D01*
X138923685Y-104926315D01*
X138959844Y-104950475D01*
X139002699Y-104959000D01*
X139127301Y-104959000D01*
X139170156Y-104950475D01*
X139206315Y-104926315D01*
X139230475Y-104890156D01*
X139239000Y-104847301D01*
X139239000Y-103897699D01*
X139230475Y-103854844D01*
X139215948Y-103833102D01*
X139215817Y-103831106D01*
X139217480Y-103829995D01*
X139218894Y-103830456D01*
X139265945Y-103869777D01*
X139334661Y-103878408D01*
X139397291Y-103848444D01*
X139404798Y-103839781D01*
X139406688Y-103839127D01*
X139408199Y-103840437D01*
X139407972Y-103842202D01*
X139399525Y-103854844D01*
X139391000Y-103897699D01*
X139391000Y-104847301D01*
X139399525Y-104890156D01*
X139423685Y-104926315D01*
X139459844Y-104950475D01*
X139502699Y-104959000D01*
X139627301Y-104959000D01*
X139670156Y-104950475D01*
X139706315Y-104926315D01*
X139730475Y-104890156D01*
X139739000Y-104847301D01*
X139739000Y-103897699D01*
X139730475Y-103854844D01*
X139715948Y-103833102D01*
X139715817Y-103831106D01*
X139717480Y-103829995D01*
X139718894Y-103830456D01*
X139765945Y-103869777D01*
X139834661Y-103878408D01*
X139897290Y-103848445D01*
X139904800Y-103839777D01*
X139906690Y-103839123D01*
X139908202Y-103840433D01*
X139907975Y-103842198D01*
X139899525Y-103854845D01*
X139891000Y-103897700D01*
X139891000Y-104847302D01*
X139899525Y-104890157D01*
X139923685Y-104926316D01*
X139959844Y-104950476D01*
X140002699Y-104959001D01*
X140127301Y-104959001D01*
X140170156Y-104950476D01*
X140206315Y-104926316D01*
X140230475Y-104890157D01*
X140239000Y-104847302D01*
X140239000Y-103897700D01*
X140230475Y-103854845D01*
X140215947Y-103833101D01*
X140215816Y-103831105D01*
X140217479Y-103829994D01*
X140218893Y-103830455D01*
G37*
G36*
X133618628Y-59057856D02*
G01*
X133776334Y-59123180D01*
X133934098Y-59161056D01*
X133935549Y-59162433D01*
X133935082Y-59164378D01*
X133933258Y-59164966D01*
X133916497Y-59161784D01*
X133847275Y-59168588D01*
X133792953Y-59211553D01*
X133770460Y-59277133D01*
X133779722Y-59329844D01*
X133798533Y-59375257D01*
X133798272Y-59377240D01*
X133796424Y-59378005D01*
X133794851Y-59376820D01*
X133742001Y-59255275D01*
X133616184Y-59060790D01*
X133616083Y-59058793D01*
X133617762Y-59057707D01*
X133618628Y-59057856D01*
G37*
G36*
X131411583Y-58950000D02*
G01*
X131411583Y-58952000D01*
X131411297Y-58952382D01*
X131338919Y-59028121D01*
X131251845Y-59155766D01*
X131250043Y-59156633D01*
X131248391Y-59155506D01*
X131248488Y-59153594D01*
X131256506Y-59140511D01*
X131274669Y-59073363D01*
X131253739Y-59007346D01*
X131200370Y-58963067D01*
X131151384Y-58952959D01*
X131149890Y-58951629D01*
X131150294Y-58949671D01*
X131151788Y-58949000D01*
X131409851Y-58949000D01*
X131411583Y-58950000D01*
G37*
G36*
X132871984Y-58346342D02*
G01*
X132874837Y-58353230D01*
X133001836Y-58560473D01*
X133043071Y-58608753D01*
X133043435Y-58610720D01*
X133041914Y-58612019D01*
X133040882Y-58611937D01*
X132835140Y-58539079D01*
X132648406Y-58505818D01*
X132646876Y-58504530D01*
X132647227Y-58502561D01*
X132648914Y-58501855D01*
X132692084Y-58505252D01*
X132692394Y-58505301D01*
X132728640Y-58514003D01*
X132798112Y-58510526D01*
X132854429Y-58470219D01*
X132880014Y-58405867D01*
X132868176Y-58347505D01*
X132868812Y-58345608D01*
X132870772Y-58345211D01*
X132871984Y-58346342D01*
G37*
G36*
X140965613Y-42125611D02*
G01*
X140966177Y-42127530D01*
X140965344Y-42128721D01*
X140955380Y-42135380D01*
X140944767Y-42151262D01*
X140941000Y-42170199D01*
X140941000Y-44619801D01*
X140944767Y-44638738D01*
X140955380Y-44654620D01*
X140964922Y-44660996D01*
X140965807Y-44662790D01*
X140964696Y-44664453D01*
X140963213Y-44664568D01*
X140904713Y-44646250D01*
X140841330Y-44664861D01*
X140839387Y-44664389D01*
X140838823Y-44662470D01*
X140839656Y-44661279D01*
X140849620Y-44654620D01*
X140860233Y-44638738D01*
X140864000Y-44619801D01*
X140864000Y-42170199D01*
X140860233Y-42151262D01*
X140849620Y-42135380D01*
X140840078Y-42129004D01*
X140839193Y-42127210D01*
X140840304Y-42125547D01*
X140841787Y-42125432D01*
X140900287Y-42143750D01*
X140963670Y-42125139D01*
X140965613Y-42125611D01*
G37*
G36*
X135290613Y-42125611D02*
G01*
X135291177Y-42127530D01*
X135290344Y-42128721D01*
X135280380Y-42135380D01*
X135269767Y-42151262D01*
X135266000Y-42170199D01*
X135266000Y-44619801D01*
X135269767Y-44638738D01*
X135280380Y-44654620D01*
X135289922Y-44660996D01*
X135290807Y-44662790D01*
X135289696Y-44664453D01*
X135288213Y-44664568D01*
X135229713Y-44646250D01*
X135166330Y-44664861D01*
X135164387Y-44664389D01*
X135163823Y-44662470D01*
X135164656Y-44661279D01*
X135174620Y-44654620D01*
X135185233Y-44638738D01*
X135189000Y-44619801D01*
X135189000Y-42170199D01*
X135185233Y-42151262D01*
X135174620Y-42135380D01*
X135165078Y-42129004D01*
X135164193Y-42127210D01*
X135165304Y-42125547D01*
X135166787Y-42125432D01*
X135225287Y-42143750D01*
X135288670Y-42125139D01*
X135290613Y-42125611D01*
G37*
G36*
X139129633Y-42133517D02*
G01*
X139130197Y-42135436D01*
X139129916Y-42136075D01*
X139119767Y-42151263D01*
X139116000Y-42170199D01*
X139116000Y-44619801D01*
X139119767Y-44638738D01*
X139129814Y-44653773D01*
X139129945Y-44655768D01*
X139128282Y-44656880D01*
X139127553Y-44656793D01*
X139067212Y-44637898D01*
X139002310Y-44656955D01*
X139000367Y-44656483D01*
X138999803Y-44654564D01*
X139000084Y-44653925D01*
X139010233Y-44638737D01*
X139014000Y-44619801D01*
X139014000Y-42170199D01*
X139010233Y-42151262D01*
X139000186Y-42136227D01*
X139000055Y-42134232D01*
X139001718Y-42133120D01*
X139002447Y-42133207D01*
X139062788Y-42152102D01*
X139127690Y-42133045D01*
X139129633Y-42133517D01*
G37*
G36*
X138129633Y-42133517D02*
G01*
X138130197Y-42135436D01*
X138129916Y-42136075D01*
X138119767Y-42151263D01*
X138116000Y-42170199D01*
X138116000Y-44619801D01*
X138119767Y-44638738D01*
X138129814Y-44653773D01*
X138129945Y-44655768D01*
X138128282Y-44656880D01*
X138127553Y-44656793D01*
X138067212Y-44637898D01*
X138002310Y-44656955D01*
X138000367Y-44656483D01*
X137999803Y-44654564D01*
X138000084Y-44653925D01*
X138010233Y-44638737D01*
X138014000Y-44619801D01*
X138014000Y-42170199D01*
X138010233Y-42151262D01*
X138000186Y-42136227D01*
X138000055Y-42134232D01*
X138001718Y-42133120D01*
X138002447Y-42133207D01*
X138062788Y-42152102D01*
X138127690Y-42133045D01*
X138129633Y-42133517D01*
G37*
G36*
X137129633Y-42133517D02*
G01*
X137130197Y-42135436D01*
X137129916Y-42136075D01*
X137119767Y-42151263D01*
X137116000Y-42170199D01*
X137116000Y-44619801D01*
X137119767Y-44638738D01*
X137129814Y-44653773D01*
X137129945Y-44655768D01*
X137128282Y-44656880D01*
X137127553Y-44656793D01*
X137067212Y-44637898D01*
X137002310Y-44656955D01*
X137000367Y-44656483D01*
X136999803Y-44654564D01*
X137000084Y-44653925D01*
X137010233Y-44638737D01*
X137014000Y-44619801D01*
X137014000Y-42170199D01*
X137010233Y-42151262D01*
X137000186Y-42136227D01*
X137000055Y-42134232D01*
X137001718Y-42133120D01*
X137002447Y-42133207D01*
X137062788Y-42152102D01*
X137127690Y-42133045D01*
X137129633Y-42133517D01*
G37*
G36*
X136629633Y-42133517D02*
G01*
X136630197Y-42135436D01*
X136629916Y-42136075D01*
X136619767Y-42151263D01*
X136616000Y-42170199D01*
X136616000Y-44619801D01*
X136619767Y-44638738D01*
X136629814Y-44653773D01*
X136629945Y-44655768D01*
X136628282Y-44656880D01*
X136627553Y-44656793D01*
X136567212Y-44637898D01*
X136502310Y-44656955D01*
X136500367Y-44656483D01*
X136499803Y-44654564D01*
X136500084Y-44653925D01*
X136510233Y-44638737D01*
X136514000Y-44619801D01*
X136514000Y-42170199D01*
X136510233Y-42151262D01*
X136500186Y-42136227D01*
X136500055Y-42134232D01*
X136501718Y-42133120D01*
X136502447Y-42133207D01*
X136562788Y-42152102D01*
X136627690Y-42133045D01*
X136629633Y-42133517D01*
G37*
G36*
X137629633Y-42133517D02*
G01*
X137630197Y-42135436D01*
X137629916Y-42136075D01*
X137619767Y-42151263D01*
X137616000Y-42170199D01*
X137616000Y-44619801D01*
X137619767Y-44638738D01*
X137629814Y-44653773D01*
X137629945Y-44655768D01*
X137628282Y-44656880D01*
X137627553Y-44656793D01*
X137567212Y-44637898D01*
X137502310Y-44656955D01*
X137500367Y-44656483D01*
X137499803Y-44654564D01*
X137500084Y-44653925D01*
X137510233Y-44638737D01*
X137514000Y-44619801D01*
X137514000Y-42170199D01*
X137510233Y-42151262D01*
X137500186Y-42136227D01*
X137500055Y-42134232D01*
X137501718Y-42133120D01*
X137502447Y-42133207D01*
X137562788Y-42152102D01*
X137627690Y-42133045D01*
X137629633Y-42133517D01*
G37*
G36*
X138629633Y-42133517D02*
G01*
X138630197Y-42135436D01*
X138629916Y-42136075D01*
X138619767Y-42151263D01*
X138616000Y-42170199D01*
X138616000Y-44619801D01*
X138619767Y-44638738D01*
X138629814Y-44653773D01*
X138629945Y-44655768D01*
X138628282Y-44656880D01*
X138627553Y-44656793D01*
X138567212Y-44637898D01*
X138502310Y-44656955D01*
X138500367Y-44656483D01*
X138499803Y-44654564D01*
X138500084Y-44653925D01*
X138510233Y-44638737D01*
X138514000Y-44619801D01*
X138514000Y-42170199D01*
X138510233Y-42151262D01*
X138500186Y-42136227D01*
X138500055Y-42134232D01*
X138501718Y-42133120D01*
X138502447Y-42133207D01*
X138562788Y-42152102D01*
X138627690Y-42133045D01*
X138629633Y-42133517D01*
G37*
G36*
X139629633Y-42133517D02*
G01*
X139630197Y-42135436D01*
X139629916Y-42136075D01*
X139619767Y-42151263D01*
X139616000Y-42170199D01*
X139616000Y-44619801D01*
X139619767Y-44638738D01*
X139629814Y-44653773D01*
X139629945Y-44655768D01*
X139628282Y-44656880D01*
X139627553Y-44656793D01*
X139567212Y-44637898D01*
X139502310Y-44656955D01*
X139500367Y-44656483D01*
X139499803Y-44654564D01*
X139500084Y-44653925D01*
X139510233Y-44638737D01*
X139514000Y-44619801D01*
X139514000Y-42170199D01*
X139510233Y-42151262D01*
X139500186Y-42136227D01*
X139500055Y-42134232D01*
X139501718Y-42133120D01*
X139502447Y-42133207D01*
X139562788Y-42152102D01*
X139627690Y-42133045D01*
X139629633Y-42133517D01*
G37*
G36*
X135955660Y-42137493D02*
G01*
X135969452Y-42146709D01*
X135970615Y-42144969D01*
X135972409Y-42144084D01*
X135973560Y-42144545D01*
X135990952Y-42159078D01*
X136059670Y-42167704D01*
X136107288Y-42144918D01*
X136109282Y-42145072D01*
X136109814Y-42145611D01*
X136110548Y-42146709D01*
X136124340Y-42137493D01*
X136126336Y-42137362D01*
X136127447Y-42139025D01*
X136127114Y-42140267D01*
X136119767Y-42151262D01*
X136116000Y-42170199D01*
X136116000Y-44619801D01*
X136119767Y-44638738D01*
X136127114Y-44649733D01*
X136127245Y-44651729D01*
X136125582Y-44652840D01*
X136124340Y-44652507D01*
X136110548Y-44643291D01*
X136109385Y-44645031D01*
X136107591Y-44645916D01*
X136106440Y-44645455D01*
X136089048Y-44630922D01*
X136020330Y-44622296D01*
X135972712Y-44645082D01*
X135970718Y-44644928D01*
X135970186Y-44644389D01*
X135969452Y-44643291D01*
X135955660Y-44652507D01*
X135953664Y-44652638D01*
X135952553Y-44650975D01*
X135952886Y-44649733D01*
X135960233Y-44638738D01*
X135964000Y-44619801D01*
X135964000Y-42170199D01*
X135960233Y-42151262D01*
X135952886Y-42140267D01*
X135952755Y-42138271D01*
X135954418Y-42137160D01*
X135955660Y-42137493D01*
G37*
G36*
X140005660Y-42137493D02*
G01*
X140019452Y-42146709D01*
X140020615Y-42144969D01*
X140022409Y-42144084D01*
X140023560Y-42144545D01*
X140040952Y-42159078D01*
X140109670Y-42167704D01*
X140157288Y-42144918D01*
X140159282Y-42145072D01*
X140159814Y-42145611D01*
X140160548Y-42146709D01*
X140174340Y-42137493D01*
X140176336Y-42137362D01*
X140177447Y-42139025D01*
X140177114Y-42140267D01*
X140169767Y-42151262D01*
X140166000Y-42170199D01*
X140166000Y-44619801D01*
X140169767Y-44638738D01*
X140177114Y-44649733D01*
X140177245Y-44651729D01*
X140175582Y-44652840D01*
X140174340Y-44652507D01*
X140160548Y-44643291D01*
X140159385Y-44645031D01*
X140157591Y-44645916D01*
X140156440Y-44645455D01*
X140139048Y-44630922D01*
X140070330Y-44622296D01*
X140022712Y-44645082D01*
X140020718Y-44644928D01*
X140020186Y-44644389D01*
X140019452Y-44643291D01*
X140005660Y-44652507D01*
X140003664Y-44652638D01*
X140002553Y-44650975D01*
X140002886Y-44649733D01*
X140010233Y-44638738D01*
X140014000Y-44619801D01*
X140014000Y-42170199D01*
X140010233Y-42151262D01*
X140002886Y-42140267D01*
X140002755Y-42138271D01*
X140004418Y-42137160D01*
X140005660Y-42137493D01*
G37*
M02*
