M48
; DRILL file {KiCad (6.0.4)} date Sun May  8 12:30:28 2022
; FORMAT={-:-/ absolute / metric / decimal}
; #@! TF.CreationDate,2022-05-08T12:30:28-05:00
; #@! TF.GenerationSoftware,Kicad,Pcbnew,(6.0.4)
; #@! TF.FileFunction,NonPlated,1,2,NPTH
FMAT,2
METRIC
; #@! TA.AperFunction,NonPlated,NPTH,ComponentDrill
T1C0.650
; #@! TA.AperFunction,NonPlated,NPTH,ComponentDrill
T2C1.750
; #@! TA.AperFunction,NonPlated,NPTH,ComponentDrill
T3C3.000
; #@! TA.AperFunction,NonPlated,NPTH,ComponentDrill
T4C3.048
; #@! TA.AperFunction,NonPlated,NPTH,ComponentDrill
T5C3.988
%
G90
G05
T1
X135.175Y-41.45
X140.955Y-41.45
T2
X27.82Y-87.626
X30.142Y-68.718
X32.464Y-49.81
X37.905Y-88.864
X40.226Y-69.956
X42.548Y-51.048
X47.309Y-85.221
X49.63Y-66.313
X51.952Y-47.405
X57.393Y-86.459
X59.715Y-67.551
X61.532Y-106.16
X62.036Y-48.643
X66.797Y-82.815
X69.119Y-63.907
X71.44Y-44.999
X71.616Y-107.398
X76.882Y-84.053
X79.203Y-65.145
X81.525Y-46.237
X85.125Y-89.864
X87.446Y-70.956
X89.768Y-52.048
X92.257Y-109.933
X95.209Y-91.102
X97.531Y-72.194
X99.852Y-53.286
X102.342Y-111.171
X104.033Y-92.185
X106.354Y-73.277
X108.676Y-54.369
X114.117Y-93.424
X116.439Y-74.516
X118.76Y-55.608
X132.985Y-60.19
X143.145Y-60.19
X157.37Y-55.608
X159.691Y-74.516
X162.013Y-93.424
X167.454Y-54.369
X169.776Y-73.277
X172.097Y-92.185
X173.788Y-111.171
X176.278Y-53.286
X178.599Y-72.194
X180.921Y-91.102
X183.873Y-109.933
X186.362Y-52.048
X188.684Y-70.956
X191.005Y-89.864
X194.605Y-46.237
X196.927Y-65.145
X199.248Y-84.053
X204.514Y-107.398
X204.69Y-44.999
X207.011Y-63.907
X209.333Y-82.815
X214.094Y-48.643
X214.598Y-106.16
X216.415Y-67.551
X218.737Y-86.459
X224.178Y-47.405
X226.5Y-66.313
X228.821Y-85.221
X233.582Y-51.048
X235.904Y-69.956
X238.225Y-88.864
X243.666Y-49.81
X245.988Y-68.718
X248.31Y-87.626
T3
X29.391Y-85.26
X31.712Y-66.352
X34.034Y-47.444
X36.003Y-83.512
X38.324Y-64.604
X40.646Y-45.696
X48.879Y-82.854
X51.201Y-63.946
X53.522Y-45.038
X55.491Y-81.107
X57.813Y-62.199
X60.134Y-43.291
X63.102Y-103.794
X68.367Y-80.449
X69.714Y-102.046
X70.689Y-61.541
X73.011Y-42.633
X74.98Y-78.702
X77.301Y-59.794
X79.623Y-40.886
X86.695Y-87.497
X89.017Y-68.589
X91.338Y-49.681
X93.307Y-85.75
X93.827Y-107.566
X95.629Y-66.842
X97.95Y-47.934
X100.44Y-105.819
X105.603Y-89.819
X107.925Y-70.911
X110.246Y-52.003
X112.215Y-88.072
X114.537Y-69.164
X116.858Y-50.256
X134.255Y-57.65
X140.605Y-55.11
X158.321Y-52.932
X160.642Y-71.84
X162.964Y-90.748
X164.314Y-49.637
X166.635Y-68.545
X168.957Y-87.453
X174.739Y-108.495
X177.229Y-50.61
X179.55Y-69.518
X180.733Y-105.2
X181.872Y-88.426
X183.222Y-47.315
X185.543Y-66.223
X187.865Y-85.131
X195.556Y-43.561
X197.878Y-62.47
X200.199Y-81.378
X201.549Y-40.267
X203.871Y-59.175
X205.465Y-104.722
X206.193Y-78.083
X211.458Y-101.427
X215.045Y-45.967
X217.366Y-64.875
X219.688Y-83.783
X221.038Y-42.672
X223.359Y-61.58
X225.681Y-80.488
X234.533Y-48.372
X236.855Y-67.28
X239.176Y-86.188
X240.526Y-45.077
X242.848Y-63.985
X245.169Y-82.893
T4
X84.599Y-116.03
X108.297Y-118.939
X167.833Y-118.939
X191.531Y-116.03
T5
X32.863Y-88.245
X35.184Y-69.337
X37.506Y-50.429
X52.351Y-85.84
X54.673Y-66.932
X56.994Y-48.024
X66.574Y-106.779
X71.839Y-83.434
X74.161Y-64.526
X76.483Y-45.618
X86.456Y-100.903
X90.167Y-90.483
X92.489Y-71.575
X94.81Y-52.667
X97.299Y-110.552
X109.075Y-92.804
X110.154Y-103.813
X111.397Y-73.896
X113.718Y-54.988
X138.065Y-60.19
X162.412Y-54.988
X164.733Y-73.896
X165.976Y-103.813
X167.055Y-92.804
X178.831Y-110.552
X181.32Y-52.667
X183.641Y-71.575
X185.963Y-90.483
X189.674Y-100.903
X199.647Y-45.618
X201.969Y-64.526
X204.291Y-83.434
X209.556Y-106.779
X219.136Y-48.024
X221.457Y-66.932
X223.779Y-85.84
X238.624Y-50.429
X240.946Y-69.337
X243.267Y-88.245
T0
M30
