%TF.GenerationSoftware,KiCad,Pcbnew,(6.0.4)*%
%TF.CreationDate,2022-05-08T12:30:25-05:00*%
%TF.ProjectId,LeChiffre-HE,4c654368-6966-4667-9265-2d48452e6b69,rev?*%
%TF.SameCoordinates,Original*%
%TF.FileFunction,Paste,Bot*%
%TF.FilePolarity,Positive*%
%FSLAX46Y46*%
G04 Gerber Fmt 4.6, Leading zero omitted, Abs format (unit mm)*
G04 Created by KiCad (PCBNEW (6.0.4)) date 2022-05-08 12:30:25*
%MOMM*%
%LPD*%
G01*
G04 APERTURE LIST*
G04 Aperture macros list*
%AMRoundRect*
0 Rectangle with rounded corners*
0 $1 Rounding radius*
0 $2 $3 $4 $5 $6 $7 $8 $9 X,Y pos of 4 corners*
0 Add a 4 corners polygon primitive as box body*
4,1,4,$2,$3,$4,$5,$6,$7,$8,$9,$2,$3,0*
0 Add four circle primitives for the rounded corners*
1,1,$1+$1,$2,$3*
1,1,$1+$1,$4,$5*
1,1,$1+$1,$6,$7*
1,1,$1+$1,$8,$9*
0 Add four rect primitives between the rounded corners*
20,1,$1+$1,$2,$3,$4,$5,0*
20,1,$1+$1,$4,$5,$6,$7,0*
20,1,$1+$1,$6,$7,$8,$9,0*
20,1,$1+$1,$8,$9,$2,$3,0*%
%AMRotRect*
0 Rectangle, with rotation*
0 The origin of the aperture is its center*
0 $1 length*
0 $2 width*
0 $3 Rotation angle, in degrees counterclockwise*
0 Add horizontal line*
21,1,$1,$2,0,0,$3*%
%AMOutline5P*
0 Free polygon, 5 corners , with rotation*
0 The origin of the aperture is its center*
0 number of corners: always 5*
0 $1 to $10 corner X, Y*
0 $11 Rotation angle, in degrees counterclockwise*
0 create outline with 5 corners*
4,1,5,$1,$2,$3,$4,$5,$6,$7,$8,$9,$10,$1,$2,$11*%
%AMOutline6P*
0 Free polygon, 6 corners , with rotation*
0 The origin of the aperture is its center*
0 number of corners: always 6*
0 $1 to $12 corner X, Y*
0 $13 Rotation angle, in degrees counterclockwise*
0 create outline with 6 corners*
4,1,6,$1,$2,$3,$4,$5,$6,$7,$8,$9,$10,$11,$12,$1,$2,$13*%
%AMOutline7P*
0 Free polygon, 7 corners , with rotation*
0 The origin of the aperture is its center*
0 number of corners: always 7*
0 $1 to $14 corner X, Y*
0 $15 Rotation angle, in degrees counterclockwise*
0 create outline with 7 corners*
4,1,7,$1,$2,$3,$4,$5,$6,$7,$8,$9,$10,$11,$12,$13,$14,$1,$2,$15*%
%AMOutline8P*
0 Free polygon, 8 corners , with rotation*
0 The origin of the aperture is its center*
0 number of corners: always 8*
0 $1 to $16 corner X, Y*
0 $17 Rotation angle, in degrees counterclockwise*
0 create outline with 8 corners*
4,1,8,$1,$2,$3,$4,$5,$6,$7,$8,$9,$10,$11,$12,$13,$14,$15,$16,$1,$2,$17*%
G04 Aperture macros list end*
%ADD10RotRect,2.550000X2.500000X353.000000*%
%ADD11RotRect,2.000000X2.500000X353.000000*%
%ADD12RotRect,2.550000X2.500000X7.000000*%
%ADD13R,2.550000X2.500000*%
%ADD14RoundRect,0.225000X0.225000X0.250000X-0.225000X0.250000X-0.225000X-0.250000X0.225000X-0.250000X0*%
%ADD15RoundRect,0.225000X-0.250000X0.225000X-0.250000X-0.225000X0.250000X-0.225000X0.250000X0.225000X0*%
%ADD16RoundRect,0.225000X0.250000X-0.225000X0.250000X0.225000X-0.250000X0.225000X-0.250000X-0.225000X0*%
%ADD17RoundRect,0.243750X0.456250X-0.243750X0.456250X0.243750X-0.456250X0.243750X-0.456250X-0.243750X0*%
%ADD18R,1.500000X0.500000*%
%ADD19R,0.500000X1.500000*%
%ADD20R,0.600000X2.450000*%
%ADD21R,0.300000X2.450000*%
%ADD22RoundRect,0.200000X0.275000X-0.200000X0.275000X0.200000X-0.275000X0.200000X-0.275000X-0.200000X0*%
%ADD23RoundRect,0.200000X0.200000X0.275000X-0.200000X0.275000X-0.200000X-0.275000X0.200000X-0.275000X0*%
%ADD24RoundRect,0.200000X-0.200000X-0.275000X0.200000X-0.275000X0.200000X0.275000X-0.200000X0.275000X0*%
%ADD25RoundRect,0.200000X-0.275000X0.200000X-0.275000X-0.200000X0.275000X-0.200000X0.275000X0.200000X0*%
%ADD26R,1.700000X1.000000*%
%ADD27RotRect,1.500000X1.000000X353.000000*%
%ADD28RotRect,1.500000X1.000000X173.000000*%
%ADD29RotRect,1.500000X1.000000X187.000000*%
%ADD30RotRect,1.500000X1.000000X7.000000*%
%ADD31R,1.500000X1.000000*%
%ADD32RoundRect,0.066667X-0.333333X0.383333X-0.333333X-0.383333X0.333333X-0.383333X0.333333X0.383333X0*%
%ADD33Outline5P,-0.450000X0.400000X0.450000X0.400000X0.450000X-0.240000X0.290000X-0.400000X-0.450000X-0.400000X270.000000*%
%ADD34RoundRect,0.066667X0.333333X-0.383333X0.333333X0.383333X-0.333333X0.383333X-0.333333X-0.383333X0*%
%ADD35Outline5P,-0.450000X0.400000X0.450000X0.400000X0.450000X-0.240000X0.290000X-0.400000X-0.450000X-0.400000X90.000000*%
%ADD36R,0.700000X1.000000*%
%ADD37R,0.700000X0.600000*%
%ADD38R,1.200000X0.900000*%
%ADD39RoundRect,0.250000X-0.275000X-0.275000X0.275000X-0.275000X0.275000X0.275000X-0.275000X0.275000X0*%
%ADD40RoundRect,0.062500X-0.475000X-0.062500X0.475000X-0.062500X0.475000X0.062500X-0.475000X0.062500X0*%
%ADD41RoundRect,0.062500X-0.062500X-0.475000X0.062500X-0.475000X0.062500X0.475000X-0.062500X0.475000X0*%
%ADD42R,0.300000X2.000000*%
G04 APERTURE END LIST*
D10*
X30783163Y-47044510D03*
X43923355Y-46098849D03*
X28461552Y-65952514D03*
X41601744Y-65006853D03*
D11*
X26139941Y-84860519D03*
D10*
X39280133Y-83914858D03*
X50271570Y-44639121D03*
X63411762Y-43693459D03*
X47949959Y-63547125D03*
X61090151Y-62601463D03*
X45628348Y-82455130D03*
X58768540Y-81509468D03*
X67438366Y-61141734D03*
X80578558Y-60196073D03*
X65116755Y-80049739D03*
X78256947Y-79104078D03*
X88087578Y-49282343D03*
X101227770Y-48336681D03*
X85765967Y-68190347D03*
X98906159Y-67244685D03*
X83444356Y-87098352D03*
X96584548Y-86152690D03*
X106995582Y-51603953D03*
X120135774Y-50658292D03*
X104673971Y-70511957D03*
X117814163Y-69566296D03*
X102352361Y-89419962D03*
X115492553Y-88474301D03*
X90576747Y-107167161D03*
X103716939Y-106221499D03*
D12*
X155070039Y-53330843D03*
X167591135Y-49234371D03*
X157391650Y-72238847D03*
X169912746Y-68142375D03*
X159713260Y-91146852D03*
X172234356Y-87050380D03*
X171488874Y-108894050D03*
X184009970Y-104797578D03*
X173978043Y-51009232D03*
X186499139Y-46912760D03*
X176299654Y-69917236D03*
X188820750Y-65820764D03*
X178621265Y-88825241D03*
X191142361Y-84728769D03*
X202214133Y-105121463D03*
X214735229Y-101024991D03*
X192305644Y-43960620D03*
X204826740Y-39864148D03*
X194627255Y-62868624D03*
X207148351Y-58772152D03*
X196948866Y-81776629D03*
X209469962Y-77680157D03*
X211794051Y-46366010D03*
X224315147Y-42269538D03*
X214115662Y-65274014D03*
X226636758Y-61177542D03*
X216437273Y-84182019D03*
X228958369Y-80085547D03*
X231282458Y-48771400D03*
X243803554Y-44674928D03*
X233604069Y-67679404D03*
X246125165Y-63582932D03*
X235925680Y-86587409D03*
X248446776Y-82490937D03*
D10*
X59851488Y-103394573D03*
X72991680Y-102448912D03*
X69759977Y-42233730D03*
X82900169Y-41288069D03*
D13*
X130980000Y-57650000D03*
X143907000Y-55110000D03*
D14*
X148250000Y-103650000D03*
X146700000Y-103650000D03*
D15*
X143100000Y-116325000D03*
X143100000Y-117875000D03*
D14*
X129275000Y-107350000D03*
X127725000Y-107350000D03*
X129275000Y-112000000D03*
X127725000Y-112000000D03*
D16*
X132400000Y-100090000D03*
X132400000Y-98540000D03*
D17*
X134350000Y-48837500D03*
X134350000Y-46962500D03*
D18*
X132165000Y-111720000D03*
X132165000Y-110920000D03*
X132165000Y-110120000D03*
X132165000Y-109320000D03*
X132165000Y-108520000D03*
X132165000Y-107720000D03*
X132165000Y-106920000D03*
X132165000Y-106120000D03*
X132165000Y-105320000D03*
X132165000Y-104520000D03*
X132165000Y-103720000D03*
D19*
X134065000Y-101820000D03*
X134865000Y-101820000D03*
X135665000Y-101820000D03*
X136465000Y-101820000D03*
X137265000Y-101820000D03*
X138065000Y-101820000D03*
X138865000Y-101820000D03*
X139665000Y-101820000D03*
X140465000Y-101820000D03*
X141265000Y-101820000D03*
X142065000Y-101820000D03*
D18*
X143965000Y-103720000D03*
X143965000Y-104520000D03*
X143965000Y-105320000D03*
X143965000Y-106120000D03*
X143965000Y-106920000D03*
X143965000Y-107720000D03*
X143965000Y-108520000D03*
X143965000Y-109320000D03*
X143965000Y-110120000D03*
X143965000Y-110920000D03*
X143965000Y-111720000D03*
D19*
X142065000Y-113620000D03*
X141265000Y-113620000D03*
X140465000Y-113620000D03*
X139665000Y-113620000D03*
X138865000Y-113620000D03*
X138065000Y-113620000D03*
X137265000Y-113620000D03*
X136465000Y-113620000D03*
X135665000Y-113620000D03*
X134865000Y-113620000D03*
X134065000Y-113620000D03*
D20*
X134840000Y-43395000D03*
X135615000Y-43395000D03*
D21*
X136315000Y-43395000D03*
X136815000Y-43395000D03*
X137315000Y-43395000D03*
X137815000Y-43395000D03*
X138315000Y-43395000D03*
X138815000Y-43395000D03*
X139315000Y-43395000D03*
X139815000Y-43395000D03*
D20*
X140515000Y-43395000D03*
X141290000Y-43395000D03*
D22*
X132125000Y-47275000D03*
X132125000Y-45625000D03*
X144000000Y-47275000D03*
X144000000Y-45625000D03*
D23*
X129325000Y-108975000D03*
X127675000Y-108975000D03*
D24*
X127675000Y-110475000D03*
X129325000Y-110475000D03*
D25*
X131210000Y-76265000D03*
X131210000Y-77915000D03*
D23*
X148865000Y-112070000D03*
X147215000Y-112070000D03*
D26*
X141215000Y-79350000D03*
X134915000Y-79350000D03*
X134915000Y-75550000D03*
X141215000Y-75550000D03*
D22*
X131360000Y-73165000D03*
X131360000Y-71515000D03*
X144840000Y-72985000D03*
X144840000Y-71335000D03*
D27*
X68393271Y-114379494D03*
X68783253Y-111203346D03*
X73646729Y-111800506D03*
X73256747Y-114976654D03*
D28*
X39366729Y-54290506D03*
X38976747Y-57466654D03*
X34113271Y-56869494D03*
X34503253Y-53693346D03*
X105356729Y-59090506D03*
X104966747Y-62266654D03*
X100103271Y-61669494D03*
X100493253Y-58493346D03*
D29*
X174406747Y-58623346D03*
X174796729Y-61799494D03*
X169933253Y-62396654D03*
X169543271Y-59220506D03*
D30*
X236423253Y-94776654D03*
X236033271Y-91600506D03*
X240896747Y-91003346D03*
X241286729Y-94179494D03*
X202403253Y-115136654D03*
X202013271Y-111960506D03*
X206876747Y-111363346D03*
X207266729Y-114539494D03*
D31*
X135610000Y-120450000D03*
X135610000Y-117250000D03*
X140510000Y-117250000D03*
X140510000Y-120450000D03*
D27*
X34993271Y-94099494D03*
X35383253Y-90923346D03*
X40246729Y-91520506D03*
X39856747Y-94696654D03*
D29*
X241546747Y-53763346D03*
X241936729Y-56939494D03*
X237073253Y-57536654D03*
X236683271Y-54360506D03*
D32*
X118600000Y-78220000D03*
X120500000Y-78220000D03*
D33*
X119550000Y-80220000D03*
D34*
X81430000Y-97890000D03*
X79530000Y-97890000D03*
D35*
X80480000Y-95890000D03*
D36*
X139025000Y-46900000D03*
D37*
X139025000Y-48600000D03*
X137025000Y-48600000D03*
X137025000Y-46700000D03*
D32*
X80830000Y-71770000D03*
X82730000Y-71770000D03*
D33*
X81780000Y-73770000D03*
D32*
X190060000Y-51810000D03*
X191960000Y-51810000D03*
D33*
X191010000Y-53810000D03*
D38*
X147180000Y-58500000D03*
X147180000Y-55200000D03*
D39*
X140015000Y-105760000D03*
X138715000Y-109660000D03*
X136115000Y-105760000D03*
X137415000Y-109660000D03*
X136115000Y-108360000D03*
X138715000Y-107060000D03*
X138715000Y-105760000D03*
X136115000Y-109660000D03*
X136115000Y-107060000D03*
X137415000Y-107060000D03*
X137415000Y-105760000D03*
X140015000Y-108360000D03*
X138715000Y-108360000D03*
X137415000Y-108360000D03*
X140015000Y-109660000D03*
X140015000Y-107060000D03*
D40*
X134727500Y-110210000D03*
X134727501Y-109710000D03*
X134727500Y-109210000D03*
X134727500Y-108710000D03*
X134727501Y-108210000D03*
X134727500Y-107710000D03*
X134727501Y-107210000D03*
X134727500Y-106710000D03*
X134727500Y-106210000D03*
X134727501Y-105710000D03*
X134727500Y-105210000D03*
D41*
X135565000Y-104372500D03*
X136065000Y-104372501D03*
X136565000Y-104372500D03*
X137065000Y-104372500D03*
X137565000Y-104372501D03*
X138065000Y-104372500D03*
X138565000Y-104372501D03*
X139065000Y-104372500D03*
X139565000Y-104372500D03*
X140065000Y-104372501D03*
X140565000Y-104372500D03*
D40*
X141402500Y-105210000D03*
X141402499Y-105710000D03*
X141402500Y-106210000D03*
X141402500Y-106710000D03*
X141402499Y-107210000D03*
X141402500Y-107710000D03*
X141402499Y-108210000D03*
X141402500Y-108710000D03*
X141402500Y-109210000D03*
X141402499Y-109710000D03*
X141402500Y-110210000D03*
D41*
X140565000Y-111047500D03*
X140065000Y-111047499D03*
X139565000Y-111047500D03*
X139065000Y-111047500D03*
X138565000Y-111047500D03*
X138065000Y-111047500D03*
X137565000Y-111047499D03*
X137065000Y-111047500D03*
X136565000Y-111047500D03*
X136065000Y-111047499D03*
X135565000Y-111047500D03*
D32*
X193420000Y-70800000D03*
X195320000Y-70800000D03*
D33*
X194370000Y-72800000D03*
D32*
X116450000Y-95925000D03*
X118350000Y-95925000D03*
D33*
X117400000Y-97925000D03*
D32*
X226140000Y-48800000D03*
X228040000Y-48800000D03*
D33*
X227090000Y-50800000D03*
D34*
X196090000Y-97850000D03*
X194190000Y-97850000D03*
D35*
X195140000Y-95850000D03*
D32*
X230870000Y-86770000D03*
X232770000Y-86770000D03*
D33*
X231820000Y-88770000D03*
D32*
X228370000Y-67340000D03*
X230270000Y-67340000D03*
D33*
X229320000Y-69340000D03*
D32*
X45070000Y-70120000D03*
X46970000Y-70120000D03*
D33*
X46020000Y-72120000D03*
D32*
X121070000Y-57600000D03*
X122970000Y-57600000D03*
D33*
X122020000Y-59600000D03*
D32*
X47210000Y-49380000D03*
X49110000Y-49380000D03*
D33*
X48160000Y-51380000D03*
D32*
X195320000Y-89380000D03*
X197220000Y-89380000D03*
D33*
X196270000Y-91380000D03*
D42*
X138685000Y-98050000D03*
X137660000Y-98050000D03*
X136635000Y-98050000D03*
D32*
X83310000Y-51070000D03*
X85210000Y-51070000D03*
D33*
X84260000Y-53070000D03*
D32*
X78350000Y-89150000D03*
X80250000Y-89150000D03*
D33*
X79300000Y-91150000D03*
D32*
X43290000Y-87800000D03*
X45190000Y-87800000D03*
D33*
X44240000Y-89800000D03*
M02*
